<svg width="40" height="40" viewBox="0 0 40 40" fill="none" xmlns="http://www.w3.org/2000/svg">
<path d="M20.0004 5.55469L34.4449 17.2214V33.3325H7.22266V16.1102L20.0004 5.55469Z" fill="#EBFAF6"/>
<path d="M5 17.8247L18.2251 6.48863C18.7194 6.06493 19.349 5.83203 20 5.83203C20.651 5.83203 21.2806 6.06493 21.7749 6.48863L35 17.8247" stroke="#34CCA9" stroke-width="1.5" stroke-linecap="round" stroke-linejoin="round"/>
<path d="M32.8572 16.021V6.36363C32.8572 6.18456 32.822 6.00724 32.7534 5.84179C32.6849 5.67635 32.5845 5.52602 32.4578 5.3994C32.3312 5.27277 32.1809 5.17233 32.0155 5.1038C31.85 5.03527 31.6727 5 31.4936 5H27.4027C27.041 5 26.6942 5.14367 26.4385 5.3994C26.1827 5.65513 26.0391 6.00198 26.0391 6.36363V10.1767" stroke="#34CCA9" stroke-width="1.5" stroke-linecap="round" stroke-linejoin="round"/>
<path d="M30.0007 21.668C31.3192 21.668 32.6081 22.059 33.7045 22.7915C34.8008 23.524 35.6553 24.5652 36.1599 25.7834C36.6644 27.0016 36.7965 28.342 36.5392 29.6352C36.282 30.9284 35.647 32.1163 34.7147 33.0487C33.7823 33.981 32.5945 34.616 31.3013 34.8732C30.008 35.1304 28.6676 34.9984 27.4494 34.4938C26.2313 33.9892 25.1901 33.1348 24.4575 32.0384C23.725 30.9421 23.334 29.6532 23.334 28.3346C23.334 26.5665 24.0364 24.8708 25.2866 23.6206C26.5368 22.3703 28.2325 21.668 30.0007 21.668Z" fill="white" stroke="#34CCA9" stroke-width="1.5" stroke-linecap="round" stroke-linejoin="round"/>
<path d="M15.9082 33.332V24.6957C15.9082 24.334 16.0519 23.9872 16.3076 23.7314C16.5633 23.4757 16.9102 23.332 17.2719 23.332H19.9991" stroke="#34CCA9" stroke-width="1.5" stroke-linecap="round" stroke-linejoin="round"/>
<path d="M7.14258 16.0195V33.3318" stroke="#34CCA9" stroke-width="1.5" stroke-linecap="round" stroke-linejoin="round"/>
<path d="M20 33.332H5" stroke="#34CCA9" stroke-width="1.5" stroke-linecap="round" stroke-linejoin="round"/>
<path d="M32.2671 27.168L29.4338 30.0013L27.7305 28.303" stroke="#34CCA9" stroke-width="1.5" stroke-linecap="round" stroke-linejoin="round"/>
</svg>
