<svg width="40" height="40" viewBox="0 0 40 40" fill="none" xmlns="http://www.w3.org/2000/svg">
<g clip-path="url(#clip0_5478_16426)">
<path d="M30.6066 9.3934C36.4644 15.2513 36.4644 24.7487 30.6066 30.6066C24.7487 36.4644 15.2512 36.4644 9.3934 30.6066C3.53553 24.7487 3.53553 15.2512 9.3934 9.3934C15.2513 3.53553 24.7487 3.53553 30.6066 9.3934Z" fill="#ECECF5"/>
<path d="M30.6066 9.3934C36.4644 15.2513 36.4644 24.7487 30.6066 30.6066C24.7487 36.4644 15.2512 36.4644 9.3934 30.6066C3.53553 24.7487 3.53553 15.2512 9.3934 9.3934C15.2513 3.53553 24.7487 3.53553 30.6066 9.3934" stroke="#434396" stroke-width="1.5" stroke-linecap="round" stroke-linejoin="round"/>
<path d="M24.8213 15.1806C27.484 17.8433 27.484 22.1605 24.8213 24.8232C22.1585 27.4859 17.8414 27.4859 15.1787 24.8232C12.516 22.1605 12.516 17.8434 15.1787 15.1806C17.8414 12.5179 22.1585 12.5179 24.8213 15.1806Z" fill="white"/>
<path d="M24.8213 15.1806C27.484 17.8433 27.484 22.1605 24.8213 24.8232C22.1585 27.4859 17.8414 27.4859 15.1787 24.8232C12.516 22.1605 12.516 17.8434 15.1787 15.1806C17.8414 12.5179 22.1585 12.5179 24.8213 15.1806" stroke="#434396" stroke-width="1.5" stroke-linecap="round" stroke-linejoin="round"/>
<path d="M25.9057 23.4102L19.2773 35.0018" stroke="#434396" stroke-width="1.5" stroke-linecap="round" stroke-linejoin="round"/>
<path d="M7.38281 11.8984L14.0995 23.4151" stroke="#434396" stroke-width="1.5" stroke-linecap="round" stroke-linejoin="round"/>
<path d="M20 13.1836H33.3667" stroke="#434396" stroke-width="1.5" stroke-linecap="round" stroke-linejoin="round"/>
</g>
<defs>
<clipPath id="clip0_5478_16426">
<rect width="40" height="40" fill="white"/>
</clipPath>
</defs>
</svg>
