<svg width="98" height="70" viewBox="0 0 98 70" fill="none" xmlns="http://www.w3.org/2000/svg">
<g filter="url(#filter0_dd_5494_6496)">
<path d="M22.9119 26.8364L23.9073 25.2196C24.3448 25.1097 25.0416 25.1123 25.1569 24.8586C25.3167 24.4975 25.0443 23.9481 24.9552 23.4772L26.0764 21.9676C26.8125 22.2292 27.2867 21.9205 27.7425 21.3345C30.9931 17.1029 34.9811 13.4914 39.5151 10.6733C48.2856 5.23933 57.7267 2.7225 68.0506 4.61928C76.7897 6.22565 83.6845 10.7334 88.2375 18.4304C93.1807 26.8024 93.5527 35.7186 90.9802 44.8833C90.5139 46.5499 89.2093 47.5676 87.4804 47.7743C86.2204 47.9234 84.9341 47.8371 83.661 47.824C83.4402 47.7937 83.2352 47.6927 83.0768 47.5362C82.4926 47.0129 81.9294 46.4897 81.3609 45.9455C83.3545 45.9324 85.348 45.9141 87.3416 45.9167C88.3291 45.9167 88.9709 45.4641 89.2172 44.5249C90.6056 39.2924 90.9985 33.984 89.8302 28.66C87.8629 19.7019 82.7808 13.0985 74.5656 8.94916C73.9081 8.61951 73.1275 8.03087 72.483 8.97271C72.0587 9.59538 72.4333 10.1082 73.6592 10.702C78.9587 13.2712 82.972 17.1825 85.5916 22.4307C88.9107 29.0812 89.246 36.0535 87.5171 43.1984C87.3704 43.8054 87.0822 43.9624 86.5006 43.9598C83.2628 43.9467 80.0275 43.9598 76.7897 43.9781H73.096L59.8145 43.9231L62.3241 40.2735L76.1584 40.3127C76.3391 41.0793 76.8473 41.3174 77.6044 41.3069C79.7001 41.2781 81.7958 41.2703 83.8732 41.3069C84.8188 41.3252 85.2249 40.9092 85.3349 39.9988C85.7043 36.9064 85.7541 33.8166 85.1384 30.753C83.7003 23.6001 79.9228 18.0668 73.6409 14.2706C72.9677 13.8625 72.3311 13.627 71.7548 14.3936L70.0415 13.6087C70.1097 13.0253 70.0153 12.4078 69.3735 12.3372C68.9754 12.2927 68.53 12.6825 68.103 12.8761L66.3164 12.4183C66.2902 11.6334 65.8711 11.2436 65.0931 11.1861C63.3379 11.0552 61.5828 10.7701 59.8302 10.791C52.2831 10.88 45.5821 13.4648 39.6591 18.038C32.5259 23.5531 27.8944 30.6771 26.1707 39.5906C25.9087 40.8988 26.2152 41.2677 27.5486 41.2729C29.6443 41.2729 31.74 41.2729 33.82 41.2729C34.5378 41.2729 35.0224 41.0322 35.1429 40.2761H50.7847C50.714 41.5842 50.955 42.8243 51.7461 43.9127L38.3362 43.9493L34.1186 44.1011C33.7807 44.0156 33.4364 43.9579 33.0891 43.9284C29.626 43.9153 26.1628 43.9284 22.6971 43.9284C22.5006 43.9284 22.257 43.8604 22.1181 43.9493C21.7933 44.1612 21.3322 44.415 21.2772 44.7159C21.2222 45.0167 21.5392 45.4824 21.8143 45.7048C22.0579 45.8932 22.4927 45.8827 22.8438 45.8853C25.2302 45.9036 27.6141 45.9036 30.0006 45.9089C28.7222 47.5833 27.0378 48.1379 24.9788 47.8344C24.2453 47.7272 23.483 47.8187 22.7311 47.8187C19.4749 47.8187 18.5895 46.856 18.8855 43.6327C18.8855 43.5673 18.9012 43.5046 18.9065 43.4391C19.3364 38.2383 20.7826 33.1719 23.1634 28.5265C23.483 27.9039 23.5799 27.3257 22.9119 26.8364Z" fill="#434396"/>
<path d="M34.1075 44.1218L38.3251 43.9701L42.933 45.9271C43.5041 46.4503 44.0542 47.018 44.6567 47.5125C44.9039 47.7043 45.2057 47.8124 45.5186 47.8212C52.2859 47.8404 59.0516 47.8404 65.8154 47.8212C66.1286 47.8113 66.4301 47.7002 66.6747 47.5047C67.2719 47.0076 67.8194 46.4582 68.3853 45.914L73.0823 43.9675H76.7759L81.3472 45.9532C81.9156 46.4765 82.4789 47.0285 83.063 47.5439C83.2214 47.7004 83.4264 47.8014 83.6472 47.8317C84.9204 47.8448 86.2066 47.9311 87.4666 47.782C89.1956 47.5753 90.5002 46.5576 90.9664 44.891C93.5389 35.7342 93.1669 26.7997 88.2237 18.4382C83.6708 10.7281 76.7759 6.22028 68.05 4.61652C57.7391 2.72236 48.298 5.23919 39.5275 10.6731C34.9935 13.4912 31.0055 17.1027 27.7549 21.3343C27.2991 21.9204 26.8249 22.2265 26.0888 21.9675C25.4234 21.2925 25.7116 20.7117 26.2146 20.0864C34.1415 10.2493 44.1773 3.96246 56.8275 2.34039C65.7971 1.19185 74.2218 2.89242 81.6222 8.31851C88.8969 13.6504 92.939 20.9471 94.1781 29.8293C94.8959 34.9833 94.372 40.0326 92.9993 45.0349C92.6527 46.406 91.8547 47.6209 90.7334 48.4845C89.6122 49.3481 88.2328 49.8102 86.817 49.7965C86.1437 49.7965 85.4705 49.7965 84.7684 49.7965C86.7934 56.0755 85.7272 60.5806 81.5227 63.7568C79.6847 65.1407 77.4601 65.9174 75.1591 65.9783C72.8581 66.0393 70.5954 65.3816 68.6865 64.0969C66.429 62.601 64.8155 60.3137 64.1651 57.6871C63.4656 55.0002 63.8088 52.3997 65.0295 49.8383H46.2835C47.1671 51.6239 47.5817 53.6045 47.4885 55.5941C47.2056 62.4382 40.2269 67.4771 33.6176 65.6065C32.8108 65.3788 32.4362 64.989 32.5514 64.1597C32.9889 63.5946 33.5181 63.5161 34.1992 63.7123C34.8292 63.8843 35.4793 63.9722 36.1325 63.9739C39.9519 64.0132 42.8387 62.3597 44.5493 58.9586C46.2023 55.6752 45.9482 52.3918 43.6796 49.4799C41.3219 46.4634 38.1234 45.2939 34.3642 46.0971C28.8342 47.277 25.8269 53.4828 28.195 58.6865C28.491 59.3379 28.7687 59.9397 28.195 60.5676C27.3515 60.8527 26.8459 60.5179 26.4922 59.7382C25.1667 56.7976 25.0331 53.8307 26.2067 50.8142L26.618 49.7808C24.8707 49.7808 23.2125 49.8096 21.5778 49.7808C18.6962 49.718 16.8075 47.7506 16.8625 44.9067C16.8861 43.8314 16.9568 42.7535 17.0878 41.6861C17.6979 36.796 19.1505 32.0481 21.3814 27.6526C21.7062 27.0064 22.1044 26.559 22.9086 26.8258C23.5766 27.3151 23.4797 27.8907 23.1496 28.5421C20.7688 33.1875 19.3226 38.2538 18.8927 43.4547C18.8927 43.5201 18.877 43.5829 18.8718 43.6483C18.5757 46.8715 19.4612 47.8343 22.7174 47.8343C23.4692 47.8343 24.2315 47.7427 24.965 47.85C27.024 48.1535 28.7084 47.5884 29.9868 45.9244L34.1075 44.1218ZM74.9029 64.0053C76.6928 63.9883 78.4375 63.4425 79.9173 62.4368C81.3971 61.431 82.5457 60.0104 83.2184 58.3538C83.891 56.6972 84.0577 54.8788 83.6973 53.1278C83.3369 51.3768 82.4656 49.7715 81.1932 48.5142C79.9208 47.2569 78.3043 46.4039 76.5473 46.0626C74.7902 45.7213 72.9714 45.9071 71.3199 46.5965C69.6684 47.2859 68.2583 48.4481 67.267 49.9366C66.2758 51.4251 65.748 53.1733 65.7499 54.961C65.7558 56.1552 65.9972 57.3366 66.4604 58.4376C66.9237 59.5385 67.5996 60.5376 68.4497 61.3775C69.2997 62.2175 70.3072 62.8819 71.4144 63.3328C72.5217 63.7837 73.7071 64.0122 74.9029 64.0053Z" fill="#434396"/>
<path d="M28.1925 60.5832C28.7688 59.9553 28.4912 59.3536 28.1925 58.7021C25.8349 53.4984 28.8317 47.2927 34.3617 46.1128C38.1235 45.3122 41.3299 46.4764 43.6876 49.4956C45.9562 52.4075 46.2103 55.6909 44.5573 58.9742C42.8467 62.3754 39.9599 64.0288 36.1405 63.9896C35.4873 63.9879 34.8372 63.8999 34.2072 63.728C33.5261 63.5317 32.9969 63.6102 32.5594 64.1753L30.9274 63.3277C30.8331 62.8698 30.8829 62.221 30.6026 62.0195C30.3223 61.8181 29.7276 62.0902 29.2692 62.1556L28.1925 60.5832ZM36.4339 49.595C35.366 49.5977 34.3232 49.9175 33.4378 50.5138C32.5525 51.11 31.8647 51.9558 31.462 52.9434C31.0592 53.9311 30.9596 55.0161 31.1759 56.0604C31.3922 57.1047 31.9146 58.0612 32.6767 58.8083C33.4387 59.5553 34.406 60.0591 35.4555 60.2556C36.5051 60.4522 37.5894 60.3326 38.5707 59.912C39.5519 59.4914 40.3858 58.7889 40.9662 57.8938C41.5467 56.9986 41.8474 55.9513 41.8303 54.885C41.8272 54.1823 41.6849 53.4872 41.4115 52.8396C41.1381 52.1921 40.7391 51.6051 40.2374 51.1123C39.7358 50.6196 39.1414 50.2309 38.4886 49.9687C37.8358 49.7064 37.1374 49.5759 36.4339 49.5845V49.595Z" fill="#434396"/>
<path d="M10.5084 27.0024C12.4708 27.0024 14.4333 27.0024 16.3958 27.0024C16.9277 27.0024 17.4903 27.0314 17.4999 27.9721C17.5095 28.9128 16.9757 29.0026 16.4284 28.9999C12.4779 28.9999 8.52866 28.9999 4.58071 28.9999C4.1045 28.9999 3.64173 28.9709 3.51884 28.1623C3.41131 27.4516 3.76847 27.0129 4.47894 27.0076C6.49324 26.9944 8.5037 27.0024 10.5084 27.0024Z" fill="#34CCA9"/>
<path d="M9.53767 35.9849C8.18396 35.9849 6.82859 35.9849 5.47157 35.9849C5.28848 35.9849 5.05094 36.0525 4.93383 35.9016C4.73753 35.6413 4.50495 35.2535 4.5 34.9099C4.5 34.6314 4.77547 34.2723 4.98001 34.0771C5.11692 33.9443 5.33961 34.0276 5.52436 34.0276H13.4702C13.5939 34.0276 13.7489 33.9547 13.8331 34.0458C14.0772 34.3061 14.4318 34.5898 14.4846 34.9568C14.5753 35.5762 14.252 35.9615 13.8495 35.9771C13.1716 36.0083 12.4936 35.9901 11.8173 35.9901L9.53767 35.9849Z" fill="#34CCA9"/>
<path d="M8.98057 42.9895C8.04743 42.9895 7.113 42.9895 6.17856 42.9895C5.82056 42.9895 5.49616 42.8187 5.50003 41.9698C5.50391 41.1209 5.83865 40.9974 6.19278 41C8.06165 41.0106 9.93008 41.0106 11.7981 41C12.147 41 12.4921 41.0736 12.4999 41.9488C12.5076 42.8739 12.1509 43 11.7839 43C10.8533 42.9842 9.915 42.9895 8.98057 42.9895Z" fill="#34CCA9"/>
<path d="M24.9545 23.4766C25.0436 23.9475 25.3161 24.4969 25.1563 24.8579C25.041 25.1196 24.3442 25.1196 23.9067 25.219C23.7941 24.7585 23.4561 24.1594 23.6316 23.8742C23.8072 23.5891 24.4935 23.5969 24.9545 23.4766Z" fill="#34CCA9"/>
<path d="M29.2617 62.1365C29.7202 62.0711 30.3331 61.8043 30.5951 62.0005C30.8571 62.1967 30.8256 62.8612 30.9199 63.3086C30.4484 63.3766 29.838 63.654 29.5525 63.4577C29.267 63.2615 29.3455 62.5996 29.2617 62.1365Z" fill="#34CCA9"/>
<path d="M66.304 12.4317C65.9477 13.1041 65.4369 13.2689 64.6745 13.1277C63.5219 12.9131 62.3457 12.8425 61.0464 12.696C60.7661 14.4201 60.4962 16.0735 60.2238 17.7296C60.0981 18.5014 59.9618 19.2706 59.8544 20.045C59.7601 20.7383 59.4143 21.1648 58.6913 21.047C57.9683 20.9293 57.8033 20.3747 57.9054 19.7127L59.0057 12.8817C54.1568 12.3585 44.1131 16.3273 40.1077 20.3485L43.6887 24.5894C43.8983 24.8511 44.231 25.063 44.2886 25.3455C44.3803 25.7929 44.4668 26.4156 44.2336 26.7191C43.8381 27.2423 43.2251 27.0801 42.8033 26.5856C41.6585 25.2461 40.5321 23.8909 39.3978 22.5435C39.1358 22.2427 38.8739 21.9522 38.5621 21.5807C33.3229 26.4417 29.7419 32.2132 28.2146 39.3267C30.1034 39.3267 31.8952 39.3424 33.6844 39.3267C34.4179 39.3267 34.9785 39.4968 35.1435 40.3026C35.023 41.0587 34.5384 41.3046 33.8206 41.2994C31.7249 41.2837 29.6292 41.2994 27.5492 41.2994C26.2158 41.2994 25.9198 40.9174 26.1713 39.6171C27.895 30.7036 32.5265 23.5796 39.6598 18.0645C45.5801 13.4913 52.2811 10.9065 59.8309 10.8175C61.5834 10.7966 63.3385 11.0791 65.0937 11.2126C65.8586 11.257 66.2778 11.6442 66.304 12.4317Z" fill="#34CCA9"/>
<path d="M81.3487 45.9517L76.7775 43.9843C80.0153 43.9843 83.2506 43.9529 86.4884 43.9659C87.07 43.9659 87.3582 43.8116 87.5049 43.2046C89.2338 36.0596 88.8985 29.0769 85.5794 22.4368C82.9598 17.1887 78.9465 13.28 73.647 10.7082C72.421 10.1143 72.0464 9.60153 72.4708 8.97887C73.1152 8.03702 73.8959 8.62568 74.5534 8.95532C82.7686 13.1047 87.8506 19.7081 89.818 28.6661C90.9863 33.9902 90.6039 39.2907 89.205 44.531C88.9587 45.4703 88.3169 45.9229 87.3293 45.9229C85.341 45.9072 83.3423 45.9255 81.3487 45.9517Z" fill="#434396"/>
<path d="M76.1443 40.3034C76.3355 39.5342 76.8568 39.3066 77.606 39.3171C79.4974 39.3433 81.3888 39.3171 83.4007 39.3171C84.1577 32.8105 82.9055 26.8821 78.9473 21.5266L73.708 26.0423C73.4618 26.2568 73.2156 26.4713 72.9615 26.678C72.4611 27.0861 71.9293 27.1437 71.4866 26.6414C71.0439 26.1391 71.2037 25.5949 71.6857 25.1867C73.2156 23.8603 74.7533 22.5443 76.2884 21.2231C76.7311 20.8438 77.1686 20.4592 77.6663 20.0275C76.1706 18.3788 74.4183 16.9821 72.4768 15.8912C71.8769 15.5459 71.5023 15.1325 71.7407 14.3947C72.3249 13.6282 72.9536 13.8715 73.6268 14.2718C79.9139 18.0627 83.6862 23.5961 85.1244 30.7541C85.74 33.8177 85.6902 36.9075 85.3208 39.9999C85.2108 40.9052 84.7969 41.3081 83.8591 41.3081C81.7634 41.2714 79.6677 41.2793 77.5903 41.3081C76.8333 41.3081 76.325 41.07 76.1443 40.3034Z" fill="#34CCA9"/>
<path d="M50.7734 40.3013C51.2292 37.808 52.6962 36.1153 55.0146 35.2075C58.2001 33.97 61.4222 32.8293 64.647 31.7017C65.0032 31.5787 65.6817 31.6755 65.8625 31.9215C65.969 32.1215 66.0293 32.3429 66.0388 32.5693C66.0483 32.7957 66.0069 33.0213 65.9175 33.2296C64.757 35.5842 63.5205 37.9231 62.3103 40.2621L59.8007 43.9117C58.6218 44.4951 57.4823 45.1832 56.2511 45.6149C55.57 45.853 54.7343 45.6594 53.9694 45.662L51.7348 43.93C50.9437 42.8495 50.7027 41.6147 50.7734 40.3013ZM63.3214 34.5456L63.0333 34.2578C60.0338 35.3592 56.8536 36.0891 54.2078 37.9833C52.4919 39.2182 52.2509 41.633 53.4795 42.8966C54.7081 44.1603 57.2649 44.0373 58.4882 42.3001C60.2381 39.8042 61.7235 37.1304 63.3345 34.5377L63.3214 34.5456Z" fill="#1C1C20"/>
<path d="M53.9696 45.6643C54.7345 45.6643 55.5702 45.8553 56.2513 45.6172C57.4825 45.1856 58.6221 44.4975 59.8009 43.9141L73.0824 43.969L68.3854 45.9155H66.921L53.9355 45.8684L53.9696 45.6643Z" fill="#434396"/>
<path d="M53.9706 45.6668C53.9706 45.7322 53.947 45.7976 53.9365 45.8657L42.9341 45.9311L38.3262 43.9741L51.736 43.9375L53.9706 45.6668Z" fill="#434396"/>
<path d="M34.1091 44.1195L29.991 45.9194C27.6045 45.9194 25.2207 45.9194 22.8342 45.8959C22.4832 45.8959 22.0483 45.8959 21.8047 45.7154C21.5191 45.493 21.2153 45.0247 21.2677 44.7264C21.32 44.4282 21.7916 44.1718 22.1086 43.9599C22.2474 43.8709 22.491 43.9389 22.6875 43.9389C26.1533 43.9389 29.6164 43.9389 33.0795 43.9389C33.4271 43.971 33.7714 44.0314 34.1091 44.1195Z" fill="#434396"/>
<path d="M70.0284 13.6227C69.5935 13.798 69.067 14.2087 68.7474 14.0857C68.4278 13.9628 68.302 13.3009 68.0898 12.8901C68.5168 12.6965 68.9622 12.3067 69.3604 12.3512C70.0022 12.4218 70.0965 13.0392 70.0284 13.6227Z" fill="#34CCA9"/>
<path d="M74.9029 64.0081C73.1122 64.0116 71.3605 63.4855 69.8688 62.4961C68.3771 61.5066 67.2122 60.0982 66.521 58.4484C65.8298 56.7986 65.6433 54.9813 65.9849 53.2257C66.3265 51.4702 67.1811 49.855 68.4407 48.5838C69.7004 47.3127 71.3087 46.4425 73.0629 46.0832C74.8171 45.7238 76.6386 45.8912 78.2976 46.5644C79.9566 47.2376 81.3789 48.3863 82.385 49.8657C83.3911 51.3452 83.9361 53.089 83.9511 54.8774C83.9533 57.2834 83.0037 59.5928 81.309 61.3029C79.6144 63.0131 77.3119 63.9853 74.9029 64.0081ZM74.8217 49.59C73.7542 49.5964 72.7128 49.9195 71.8297 50.5185C70.9466 51.1174 70.2617 51.965 69.8621 52.9536C69.4625 53.9421 69.3662 55.027 69.5854 56.0704C69.8047 57.1138 70.3295 58.0685 71.0933 58.8132C71.8572 59.558 72.8254 60.0591 73.8751 60.253C74.9248 60.4469 76.0085 60.3247 76.9884 59.902C77.9684 59.4793 78.8004 58.7752 79.3788 57.8791C79.9571 56.983 80.2557 55.9355 80.2365 54.8695C80.211 53.4548 79.6284 52.107 78.6148 51.1183C77.6013 50.1296 76.2385 49.5795 74.8217 49.5873V49.59Z" fill="#434396"/>
<path d="M42.9336 45.9326L53.936 45.8672L66.9215 45.9143H68.3859C67.82 46.4375 67.2725 47.0079 66.6753 47.505C66.4307 47.7005 66.1292 47.8116 65.816 47.8215C59.0522 47.8407 52.2865 47.8407 45.5192 47.8215C45.2078 47.8165 44.9061 47.713 44.6573 47.5259C44.0548 47.0236 43.5047 46.4794 42.9336 45.9326Z" fill="#434396"/>
<path d="M36.4332 49.5867C37.8405 49.611 39.1824 50.1848 40.1713 51.1852C41.1602 52.1856 41.7175 53.533 41.7236 54.9388C41.7298 56.3445 41.1844 57.6968 40.2043 58.7058C39.2243 59.7148 37.8874 60.3003 36.4803 60.3369C35.7638 60.3555 35.0508 60.231 34.3831 59.9708C33.7154 59.7105 33.1065 59.3197 32.592 58.8213C32.0776 58.3229 31.668 57.7269 31.3872 57.0683C31.1065 56.4097 30.9602 55.7017 30.9571 54.9859C30.9539 54.2701 31.094 53.5608 31.3689 52.8998C31.6439 52.2387 32.0483 51.6392 32.5583 51.1363C33.0684 50.6334 33.6739 50.2373 34.3393 49.9712C35.0046 49.7051 35.7165 49.5744 36.4332 49.5867ZM36.4751 51.5646C35.8059 51.5621 35.1509 51.7574 34.5927 52.126C34.0345 52.4946 33.598 53.02 33.3382 53.6359C33.0785 54.2519 33.0071 54.9308 33.133 55.5872C33.259 56.2436 33.5767 56.8481 34.046 57.3245C34.5154 57.8008 35.1154 58.1278 35.7705 58.2642C36.4256 58.4006 37.1065 58.3403 37.7274 58.0908C38.3482 57.8414 38.8812 57.414 39.2593 56.8625C39.6373 56.3111 39.8435 55.6602 39.8518 54.9919C39.8706 54.5415 39.7965 54.092 39.6342 53.6713C39.4719 53.2506 39.2248 52.8678 38.9082 52.5464C38.5916 52.2251 38.2122 51.9721 37.7937 51.8032C37.3752 51.6343 36.9263 51.5531 36.4751 51.5646Z" fill="#34CCA9"/>
<path d="M63.3359 34.5378C61.7379 37.1305 60.2526 39.8043 58.5027 42.2923C57.2793 44.0295 54.7488 44.1813 53.494 42.8888C52.2392 41.5964 52.5064 39.2104 54.2222 37.9755C56.8681 36.0709 60.0483 35.3593 63.0478 34.25L63.3359 34.5378ZM55.8648 41.5075L56.3127 41.5415C56.6402 41.0941 57.0986 40.6807 57.2348 40.1784C57.2951 39.9587 56.7397 39.3464 56.3991 39.2837C56.2468 39.2524 56.0892 39.2563 55.9386 39.2951C55.788 39.3339 55.6482 39.4066 55.5299 39.5075C55.4117 39.6085 55.3181 39.7351 55.2562 39.8776C55.1944 40.0202 55.166 40.175 55.1732 40.3302C55.1758 40.7226 55.6185 41.1072 55.8648 41.5075Z" fill="#434396"/>
<path d="M74.8236 49.5865C75.5267 49.5765 76.2248 49.7052 76.878 49.9654C77.5311 50.2256 78.1263 50.6121 78.6294 51.1027C79.1325 51.5932 79.5337 52.1782 79.8098 52.8241C80.0859 53.4699 80.2316 54.1639 80.2384 54.8661C80.2592 55.9342 79.9613 56.9843 79.3828 57.8829C78.8042 58.7814 77.9711 59.4878 76.9893 59.9121C76.0076 60.3363 74.9217 60.4594 73.8698 60.2655C72.8179 60.0716 71.8475 59.5696 71.0821 58.8233C70.3167 58.077 69.7909 57.1202 69.5716 56.0745C69.3522 55.0289 69.4493 53.9418 69.8505 52.9514C70.2517 51.9611 70.9387 51.1123 71.8243 50.5131C72.7099 49.9139 73.754 49.5914 74.8236 49.5865ZM74.8236 51.5644C74.3714 51.5584 73.9225 51.643 73.5034 51.813C73.0844 51.983 72.7036 52.2351 72.3836 52.5543C72.0636 52.8735 71.8108 53.2535 71.6401 53.6718C71.4694 54.0902 71.3842 54.5384 71.3897 54.9901C71.3951 55.4418 71.491 55.8878 71.6716 56.3019C71.8523 56.716 72.1142 57.0898 72.4418 57.4013C72.7693 57.7128 73.156 57.9557 73.579 58.1156C74.0021 58.2756 74.4528 58.3493 74.9048 58.3326C75.3571 58.3385 75.806 58.254 76.225 58.084C76.6441 57.914 77.0248 57.6619 77.3449 57.3427C77.6649 57.0234 77.9177 56.6434 78.0884 56.2251C78.2591 55.8068 78.3442 55.3586 78.3388 54.9069C78.3334 54.4552 78.2375 54.0092 78.0568 53.595C77.8761 53.1809 77.6143 52.8071 77.2867 52.4956C76.9591 52.1841 76.5724 51.9413 76.1494 51.7813C75.7264 51.6214 75.2756 51.5476 74.8236 51.5644Z" fill="#34CCA9"/>
<path d="M36.477 51.5637C37.1461 51.5668 37.7993 51.7676 38.3543 52.1407C38.9093 52.5139 39.3414 53.0428 39.596 53.6608C39.8506 54.2787 39.9164 54.9581 39.7851 55.6134C39.6538 56.2686 39.3313 56.8704 38.8582 57.3429C38.385 57.8154 37.7825 58.1375 37.1264 58.2686C36.4703 58.3998 35.79 58.334 35.1713 58.0798C34.5525 57.8255 34.023 57.394 33.6493 56.8397C33.2756 56.2854 33.0746 55.633 33.0715 54.9648C33.0596 54.5149 33.1395 54.0673 33.3065 53.6493C33.4734 53.2313 33.7238 52.8516 34.0424 52.5334C34.3611 52.2152 34.7413 51.9651 35.1598 51.7983C35.5784 51.6316 36.0265 51.5518 36.477 51.5637Z" fill="#434396"/>
<path d="M55.8645 41.5063C55.6183 41.1165 55.1756 40.7215 55.173 40.3369C55.1658 40.1817 55.1942 40.0269 55.256 39.8843C55.3179 39.7418 55.4115 39.6152 55.5297 39.5142C55.648 39.4133 55.7878 39.3407 55.9384 39.3019C56.089 39.2631 56.2466 39.2591 56.3989 39.2904C56.7395 39.3532 57.2948 39.9654 57.2346 40.1851C57.0984 40.6874 56.6399 41.1008 56.3125 41.5482L55.8645 41.5063Z" fill="#34CCA9"/>
<path d="M74.817 51.5648C75.269 51.5481 75.7198 51.6219 76.1428 51.7818C76.5658 51.9417 76.9525 52.1846 77.2801 52.4961C77.6077 52.8076 77.8695 53.1814 78.0502 53.5955C78.2309 54.0096 78.3268 54.4557 78.3322 54.9074C78.3376 55.359 78.2525 55.8073 78.0818 56.2256C77.9111 56.6439 77.6583 57.0239 77.3382 57.3431C77.0182 57.6624 76.6375 57.9144 76.2184 58.0844C75.7994 58.2544 75.3505 58.339 74.8982 58.333C74.4462 58.3498 73.9954 58.276 73.5724 58.1161C73.1494 57.9561 72.7627 57.7133 72.4352 57.4018C72.1076 57.0903 71.8457 56.7165 71.665 56.3024C71.4844 55.8883 71.3885 55.4422 71.3831 54.9905C71.3776 54.5388 71.4628 54.0906 71.6335 53.6723C71.8042 53.254 72.057 52.874 72.377 52.5548C72.697 52.2355 73.0778 51.9835 73.4968 51.8135C73.9159 51.6434 74.3647 51.5589 74.817 51.5648Z" fill="#434396"/>
</g>
<defs>
<filter id="filter0_dd_5494_6496" x="0.5" y="0" width="97" height="70" filterUnits="userSpaceOnUse" color-interpolation-filters="sRGB">
<feFlood flood-opacity="0" result="BackgroundImageFix"/>
<feColorMatrix in="SourceAlpha" type="matrix" values="0 0 0 0 0 0 0 0 0 0 0 0 0 0 0 0 0 0 127 0" result="hardAlpha"/>
<feMorphology radius="1" operator="erode" in="SourceAlpha" result="effect1_dropShadow_5494_6496"/>
<feOffset dy="1"/>
<feGaussianBlur stdDeviation="1"/>
<feComposite in2="hardAlpha" operator="out"/>
<feColorMatrix type="matrix" values="0 0 0 0 0.0627451 0 0 0 0 0.0941176 0 0 0 0 0.156863 0 0 0 0.1 0"/>
<feBlend mode="normal" in2="BackgroundImageFix" result="effect1_dropShadow_5494_6496"/>
<feColorMatrix in="SourceAlpha" type="matrix" values="0 0 0 0 0 0 0 0 0 0 0 0 0 0 0 0 0 0 127 0" result="hardAlpha"/>
<feOffset dy="1"/>
<feGaussianBlur stdDeviation="1.5"/>
<feComposite in2="hardAlpha" operator="out"/>
<feColorMatrix type="matrix" values="0 0 0 0 0.0627451 0 0 0 0 0.0941176 0 0 0 0 0.156863 0 0 0 0.1 0"/>
<feBlend mode="normal" in2="effect1_dropShadow_5494_6496" result="effect2_dropShadow_5494_6496"/>
<feBlend mode="normal" in="SourceGraphic" in2="effect2_dropShadow_5494_6496" result="shape"/>
</filter>
</defs>
</svg>
