<svg width="64" height="65" viewBox="0 0 64 65" fill="none" xmlns="http://www.w3.org/2000/svg">
<path d="M31.3941 49.0021C33.1125 49.2158 34.8392 49.344 36.5432 49.6431C43.3713 50.8097 49.02 54.0166 52.9689 60.0224C53.3732 60.6572 53.5893 61.3997 53.5908 62.159C53.5659 63.3341 52.5211 64.2357 51.3707 64.3361C51.1136 64.3596 50.8525 64.3468 50.5933 64.3468H6.83221C5.76466 64.3319 4.82978 64.0434 4.2929 62.9901C3.75601 61.9368 4.00683 60.9518 4.64322 59.9989C8.447 54.3136 13.764 51.0725 20.2584 49.8033C22.2318 49.4188 24.2467 49.2628 26.2429 49L31.3941 49.0021Z" fill="#434396"/>
<path d="M35.8012 24.4875C34.0807 20.0264 34.4518 15.7277 36.8377 11.634C39.178 7.62588 42.6729 4.92529 46.657 2.85497C49.9136 1.16283 53.3173 -0.0293612 57.0216 0.00055041C61.3747 0.0347351 63.9845 2.71396 63.999 7.18362C64.0156 11.7751 62.4402 15.89 60.2367 19.7679C58.4602 22.8936 56.2981 25.6968 53.2551 27.6603C49.5861 30.0254 45.6766 30.7989 41.4769 29.5832C40.7202 29.3695 40.0258 28.9123 39.3045 28.5662C39.3787 28.3695 39.4711 28.1807 39.5801 28.0021C41.3857 25.5857 43.5622 23.5581 45.8154 21.6053C47.4924 20.1567 49.1694 18.706 50.7904 17.1976C51.2607 16.789 51.5569 16.2067 51.6154 15.5756C51.674 14.9445 51.4901 14.3149 51.1034 13.8219C50.1976 12.6575 48.8336 12.3947 47.6728 13.2557C46.8602 13.8582 46.1285 14.5782 45.3677 15.2555C42.7165 17.6057 39.8745 19.7422 37.5756 22.4984C37.016 23.1928 36.3982 23.8337 35.8012 24.4875Z" fill="#434396"/>
<path d="M23.0392 34.7013C22.4837 34.8081 21.9323 34.9278 21.3809 35.0218C16.5179 35.8486 12.2415 34.541 8.63669 31.114C3.95607 26.6593 1.1224 21.1363 0.137774 14.6626C-0.056452 13.3467 -0.0452543 12.0073 0.170941 10.695C0.747209 7.20821 3.07301 5.26608 6.55135 5.12934C9.94055 4.99688 13.0955 5.96046 16.1344 7.37058C20.1807 9.24434 23.7731 11.7804 26.3746 15.5493C29.6124 20.2497 30.2861 25.2471 27.7157 30.5243C27.5498 30.8201 27.3671 31.1054 27.1685 31.379C27.0897 31.3191 26.9798 31.2764 26.9322 31.1952C26.3455 30.1974 25.7838 29.1805 25.1847 28.1891C22.7573 24.1852 19.6148 20.8372 16.1551 17.7841C15.3446 17.0684 14.3973 16.8633 13.4147 17.2906C11.717 18.0298 11.3315 20.1343 12.6581 21.5038C13.5287 22.4033 14.5237 23.1832 15.413 24.0677C18.5228 27.1399 21.1018 30.7359 23.0392 34.7013Z" fill="#434396"/>
<path d="M23.0391 34.7015C21.0987 30.7322 18.5154 27.1331 15.4004 24.0594C14.505 23.1834 13.5162 22.4036 12.6456 21.4955C11.3189 20.126 11.7045 18.0215 13.4022 17.2823C14.3847 16.855 15.332 17.0686 16.1425 17.7758C19.6022 20.8289 22.7448 24.1855 25.1721 28.1808C25.7712 29.1722 26.333 30.1891 26.9196 31.1869C26.9673 31.2681 27.0771 31.3108 27.1559 31.3707C27.1623 31.551 27.1909 31.7297 27.2409 31.9027C27.8918 33.3982 28.5551 34.8938 29.2371 36.445C29.3163 36.3326 29.3857 36.2132 29.4444 36.0881C30.9317 32.09 32.9877 28.3421 35.5449 24.9674C35.6425 24.8146 35.7278 24.6538 35.7999 24.4867C36.3969 23.8265 37.0146 23.1855 37.5847 22.5019C39.8835 19.7436 42.7255 17.6113 45.3767 15.259C46.1375 14.5817 46.8692 13.8617 47.6818 13.2592C48.8426 12.4045 50.2066 12.6609 51.1125 13.8253C51.502 14.3186 51.6877 14.95 51.6295 15.5831C51.5713 16.2163 51.274 16.8005 50.8015 17.2096C49.1743 18.718 47.4973 20.1687 45.8266 21.6173C43.5733 23.5701 41.3968 25.5977 39.5913 28.0141C39.4822 28.1927 39.3899 28.3816 39.3156 28.5782C39.0844 28.7762 38.8702 28.9942 38.675 29.2298C34.6486 34.9041 32.2756 41.6443 31.8344 48.6596H26.6625C26.3507 43.8077 25.1197 39.0657 23.0391 34.7015Z" fill="#34CCA9"/>
</svg>
