<svg width="70" height="70" viewBox="0 0 70 70" fill="none" xmlns="http://www.w3.org/2000/svg">
<g filter="url(#filter0_dd_5494_5525)">
<path d="M56.5216 66.0006H13.4542L13.0466 65.8519C10.9557 64.8181 10.1718 63.3206 10.7682 61.5006C15.5233 61.5006 20.2784 61.5194 25.0335 61.4894C26.5455 61.4855 28.056 61.4021 29.5576 61.2394C34.0871 60.7269 37.9591 58.8881 41.285 56.0631C43.4175 54.2475 45.1172 52.0444 46.2764 49.5931C47.4003 47.2479 48.0283 44.7271 48.1268 42.1656C48.2627 38.9506 47.3117 35.9081 46.6324 32.8181C46.5495 32.4431 46.2941 32.3744 45.9449 32.3756C44.8132 32.3756 43.6815 32.3756 42.5485 32.3756C42.5485 31.6881 42.5552 31.0006 42.5335 30.3156C42.4642 28.1094 40.6614 26.0906 38.2743 25.8931C36.1144 25.7185 33.9422 25.7152 31.7816 25.8831C29.4992 26.0581 27.7181 27.8581 27.4857 29.9419C27.3961 30.7456 27.4518 31.5669 27.4409 32.3744H22.8638C22.8638 31.7069 22.8475 31.0406 22.8638 30.3744C22.9752 26.0894 26.3608 22.4756 30.98 22.0144C33.4815 21.7848 36.0002 21.7589 38.5066 21.9369C43.0348 22.2244 46.5509 25.4469 47.0359 29.5419C47.1459 30.4656 47.1351 31.4006 47.1826 32.3969H49.0249C51.2788 32.3969 52.6686 33.4606 53.1387 35.4706C55.1521 44.0723 57.1733 52.6727 59.2021 61.2719C59.7251 63.4856 59.0948 64.7994 56.9319 65.8519L56.5216 66.0006Z" fill="#34CCA9"/>
<path d="M9.51327 2H29.6204C29.5036 2.79875 29.4031 3.59875 29.2699 4.395C28.8488 6.92875 28.4154 9.4625 27.9874 11.9962L27.8434 12.015C27.8042 12.01 27.7644 12.01 27.7252 12.015H3.08984C3.15691 11.8627 3.23264 11.7137 3.31673 11.5687C5.38088 8.37458 7.4464 5.185 9.51327 2Z" fill="#434396"/>
<path d="M41.0332 2H60.5969C60.692 2.185 60.7722 2.375 60.885 2.55375C62.9002 5.69625 64.9173 8.83792 66.9361 11.9787C66.5068 11.9787 66.0775 11.9937 65.6468 11.995L43.207 12.0137C43.1677 12.0087 43.128 12.0087 43.0888 12.0137L42.9447 11.995C42.3044 8.66333 41.6672 5.33167 41.0332 2Z" fill="#434396"/>
<path d="M41.0323 2C41.6663 5.33333 42.3003 8.66667 42.9343 12C42.6422 12.0137 42.3501 12.0387 42.058 12.0387C37.6589 12.0387 33.2598 12.0387 28.8607 12.0387C28.5686 12.0387 28.2765 12.0137 27.9844 12C28.4123 9.46625 28.8457 6.9325 29.2669 4.39875C29.4027 3.6025 29.5006 2.8025 29.6174 2.00375L41.0323 2Z" fill="#39398C"/>
<path d="M27.9907 11.9981C28.2828 12.0119 28.5749 12.0369 28.867 12.0369C33.2661 12.0369 37.6653 12.0369 42.0644 12.0369C42.3565 12.0369 42.6486 12.0119 42.9407 11.9981L43.0847 12.0169H43.2029L65.6509 12.0006C66.0816 12.0006 66.5109 11.9894 66.9402 11.9844C66.9606 12.2531 67 12.5219 67 12.7906C67 29.8248 67 46.859 67 63.8931C67 65.4119 66.4973 65.8819 64.867 65.8794C62.2187 65.8744 59.5708 65.8664 56.9233 65.8556C59.0862 64.8031 59.7166 63.4894 59.1935 61.2756C57.1638 52.6773 55.1427 44.0769 53.1301 35.4744C52.66 33.4644 51.2702 32.4044 49.0163 32.4006H47.1768C47.1292 31.4006 47.1401 30.4694 47.03 29.5456C46.545 25.4506 43.029 22.2281 38.5008 21.9406C35.9962 21.7621 33.4794 21.7872 30.9796 22.0156C26.3604 22.4781 22.9802 26.0919 22.8661 30.3844C22.8484 31.0506 22.8661 31.7169 22.8661 32.3844C22.1202 32.3994 21.3717 32.4081 20.6299 32.4319C18.6884 32.4931 17.2741 33.5206 16.8801 35.2119C14.8395 43.9744 12.8062 52.7381 10.7801 61.5031C10.1836 63.3231 10.9675 64.8206 13.0584 65.8544C10.2516 65.8619 7.44471 65.8819 4.63514 65.8681C3.67326 65.8681 3.04831 65.2431 3.00483 64.3531C2.99396 64.1656 3.00483 63.9781 3.00483 63.7906C3.00483 46.814 3.00483 29.8381 3.00483 12.8631C3.02016 12.5767 3.05236 12.2913 3.10129 12.0081H27.7367H27.8549L27.9907 11.9981Z" fill="#39398C"/>
<path d="M10.7734 61.5016C12.8059 52.7374 14.8393 43.9736 16.8735 35.2103C17.2675 33.5191 18.6818 32.4916 20.6232 32.4303C21.3691 32.4066 22.1177 32.3978 22.8595 32.3828H27.4366H42.5441C43.6758 32.3828 44.8076 32.3828 45.9406 32.3828C46.2898 32.3828 46.5452 32.4478 46.6281 32.8253C47.3142 35.9153 48.2652 38.9578 48.1225 42.1728C48.0239 44.7343 47.396 47.255 46.2721 49.6003C45.1129 52.0516 43.4132 54.2547 41.2806 56.0703C37.9548 58.8953 34.0801 60.7341 29.5533 61.2466C28.0517 61.4093 26.5411 61.4927 25.0292 61.4966C20.2795 61.5153 15.5272 61.5016 10.7734 61.5016ZM37.9086 49.1791C37.9086 48.3041 37.8801 47.4291 37.9154 46.5541C37.9521 45.6428 38.4249 45.1291 39.308 44.9366C40.6394 44.6466 41.5605 45.1728 41.839 46.4366C41.9667 47.0153 42.3825 47.1091 42.8865 47.0791C43.3905 47.0491 43.7152 46.7541 43.6106 46.2878C43.4856 45.7328 43.3647 45.1191 43.0237 44.6716C42.142 43.5141 40.0484 43.1066 38.304 43.6378C36.9005 44.0666 36.1465 45.0991 36.1302 46.6903C36.1139 48.2816 36.1112 49.8541 36.1302 51.4403C36.1506 53.5516 37.156 54.6316 39.4275 54.8153C41.4287 54.9803 43.2166 54.2828 43.54 52.3153C43.7003 51.3378 43.6269 50.3241 43.6229 49.3266C43.6229 48.8966 43.2547 48.7891 42.8607 48.7853C42.0455 48.7853 41.2304 48.7853 40.4152 48.7853C39.9356 48.7853 39.6069 48.9891 39.6069 49.4441C39.6069 49.9228 39.9234 50.1216 40.4492 50.1341C41.9436 50.1703 41.9436 50.1828 41.854 51.5766C41.8506 51.6809 41.8397 51.7848 41.8214 51.8878C41.6162 52.9253 40.8704 53.4403 39.687 53.3741C38.6001 53.3141 37.9643 52.7328 37.9208 51.6803C37.8774 50.8453 37.9086 50.0153 37.9086 49.1791ZM30.2502 49.7378C31.3493 51.2716 32.3927 52.7303 33.4402 54.1878C33.8763 54.7941 34.3749 54.9291 34.8966 54.5953C35.4183 54.2616 35.4333 53.9703 34.9713 53.3216C33.8926 51.8066 32.8193 50.2878 31.7229 48.7841C31.4811 48.4528 31.4825 48.2116 31.761 47.9016C32.64 46.9228 33.4932 45.9241 34.3545 44.9328C34.8599 44.3516 34.8599 44.0303 34.3545 43.6628C33.8491 43.2953 33.4755 43.3678 33.0055 43.9391C31.8978 45.2832 30.7919 46.6278 29.6878 47.9728C29.5519 48.1391 29.3916 48.2891 29.2422 48.4466C29.138 48.2342 29.0913 48.0017 29.1063 47.7691C29.1063 46.5816 29.0873 45.3941 29.1144 44.2091C29.128 43.6078 28.7626 43.4366 28.2246 43.4441C27.6866 43.4516 27.2926 43.6216 27.3252 44.2166C27.3442 44.5491 27.3252 44.8828 27.3252 45.2166C27.3252 48.0282 27.3252 50.8386 27.3252 53.6478C27.3252 54.4653 27.5548 54.7378 28.2382 54.7416C28.9215 54.7453 29.1022 54.5078 29.1036 53.6328C29.1036 53.0916 29.1756 52.5403 29.0886 52.0078C28.9297 51.0228 29.5438 50.4191 30.2489 49.7378H30.2502Z" fill="#34CCA9"/>
<path d="M42.5445 32.3804H27.437C27.4478 31.5691 27.3921 30.7554 27.4818 29.9479C27.7141 27.8641 29.4952 26.0641 31.7777 25.8891C33.9382 25.7212 36.1104 25.7245 38.2704 25.8991C40.6574 26.0966 42.4603 28.1154 42.5296 30.3216C42.5513 31.0066 42.5404 31.6929 42.5445 32.3804Z" fill="#434396"/>
<path d="M27.8467 12.0158H27.7285C27.7677 12.0104 27.8075 12.0104 27.8467 12.0158Z" fill="#434396"/>
<path d="M43.2061 12.0158H43.0879C43.1271 12.0104 43.1669 12.0104 43.2061 12.0158Z" fill="#434396"/>
<path d="M37.9083 49.1789C37.9083 50.0114 37.8798 50.8452 37.9083 51.6789C37.9518 52.7314 38.5876 53.3127 39.6745 53.3727C40.8633 53.4389 41.6037 52.9239 41.8089 51.8864C41.8272 51.7834 41.8381 51.6795 41.8415 51.5752C41.9257 50.1814 41.9257 50.1689 40.4367 50.1327C39.9109 50.1202 39.5944 49.9214 39.5944 49.4427C39.5944 48.9877 39.9231 48.7852 40.4027 48.7839C41.2179 48.7839 42.033 48.7839 42.8482 48.7839C43.2422 48.7839 43.609 48.8952 43.6104 49.3252C43.6104 50.3252 43.6878 51.3364 43.5275 52.3139C43.2041 54.2839 41.4162 54.9814 39.415 54.8139C37.1435 54.6277 36.1381 53.5477 36.1177 51.4389C36.1028 49.8564 36.1001 48.2739 36.1177 46.6889C36.1354 45.1039 36.8935 44.0639 38.2915 43.6364C40.0359 43.1052 42.1295 43.5114 43.0112 44.6702C43.3522 45.1177 43.4731 45.7314 43.5981 46.2864C43.7027 46.7527 43.3875 47.0477 42.874 47.0777C42.3605 47.1077 41.9542 47.0139 41.8265 46.4352C41.548 45.1727 40.6269 44.6464 39.2955 44.9352C38.4124 45.1277 37.9369 45.6414 37.9029 46.5527C37.8785 47.4289 37.9083 48.3052 37.9083 49.1789Z" fill="#434396"/>
<path d="M30.249 49.7366C29.5439 50.4179 28.9298 51.0216 29.0915 52.0091C29.1784 52.5379 29.1078 53.0891 29.1064 53.6341C29.1064 54.5091 28.9203 54.7454 28.241 54.7429C27.5617 54.7404 27.328 54.4666 27.328 53.6491C27.328 50.8391 27.328 48.0287 27.328 45.2179C27.328 44.8854 27.3443 44.5516 27.328 44.2179C27.2954 43.6229 27.6962 43.4516 28.2274 43.4454C28.7586 43.4391 29.1309 43.6091 29.1173 44.2104C29.0901 45.3966 29.1091 46.5854 29.1091 47.7704C29.0942 48.003 29.1408 48.2355 29.245 48.4479C29.3945 48.2904 29.5534 48.1404 29.6906 47.9741C30.7992 46.6316 31.9051 45.2871 33.0083 43.9404C33.4784 43.3691 33.852 43.2954 34.3574 43.6641C34.8628 44.0329 34.8614 44.3529 34.3574 44.9341C33.496 45.9254 32.6428 46.9241 31.7638 47.9029C31.4853 48.2129 31.484 48.4541 31.7258 48.7854C32.8222 50.2854 33.8995 51.8079 34.9742 53.3229C35.4361 53.9716 35.4171 54.2654 34.8995 54.5966C34.3818 54.9279 33.8792 54.7954 33.4431 54.1891C32.3915 52.7291 31.3481 51.2704 30.249 49.7366Z" fill="#434396"/>
</g>
<defs>
<filter id="filter0_dd_5494_5525" x="0" y="0" width="70" height="70" filterUnits="userSpaceOnUse" color-interpolation-filters="sRGB">
<feFlood flood-opacity="0" result="BackgroundImageFix"/>
<feColorMatrix in="SourceAlpha" type="matrix" values="0 0 0 0 0 0 0 0 0 0 0 0 0 0 0 0 0 0 127 0" result="hardAlpha"/>
<feMorphology radius="1" operator="erode" in="SourceAlpha" result="effect1_dropShadow_5494_5525"/>
<feOffset dy="1"/>
<feGaussianBlur stdDeviation="1"/>
<feComposite in2="hardAlpha" operator="out"/>
<feColorMatrix type="matrix" values="0 0 0 0 0.0627451 0 0 0 0 0.0941176 0 0 0 0 0.156863 0 0 0 0.1 0"/>
<feBlend mode="normal" in2="BackgroundImageFix" result="effect1_dropShadow_5494_5525"/>
<feColorMatrix in="SourceAlpha" type="matrix" values="0 0 0 0 0 0 0 0 0 0 0 0 0 0 0 0 0 0 127 0" result="hardAlpha"/>
<feOffset dy="1"/>
<feGaussianBlur stdDeviation="1.5"/>
<feComposite in2="hardAlpha" operator="out"/>
<feColorMatrix type="matrix" values="0 0 0 0 0.0627451 0 0 0 0 0.0941176 0 0 0 0 0.156863 0 0 0 0.1 0"/>
<feBlend mode="normal" in2="effect1_dropShadow_5494_5525" result="effect2_dropShadow_5494_5525"/>
<feBlend mode="normal" in="SourceGraphic" in2="effect2_dropShadow_5494_5525" result="shape"/>
</filter>
</defs>
</svg>
