<svg width="64" height="48" viewBox="0 0 64 48" fill="none" xmlns="http://www.w3.org/2000/svg">
<path d="M0.0136719 45.8424V9.92578C0.224015 9.92578 0.432676 9.93924 0.64302 9.93924H63.3675C63.5778 9.93924 63.7882 9.93083 63.9968 9.92578C63.9968 21.9384 63.9968 33.9521 63.9968 45.9669C63.3793 47.3838 62.2182 47.6227 60.7996 47.6194C41.522 47.5936 22.245 47.5936 2.96858 47.6194C1.55002 47.6244 0.550469 47.1869 0.0136719 45.8424ZM59.3407 44.8058L59.445 44.7065C59.445 44.6224 59.4635 44.5382 59.4635 44.4558C59.4635 39.0228 59.4635 33.5897 59.4635 28.1567C59.4567 28.0162 59.4415 27.8763 59.4181 27.7377H39.6828V30.3594C39.6895 35.1418 39.6968 39.9241 39.7047 44.7065L39.8124 44.8058C42.0942 44.8058 44.376 44.826 46.6561 44.8243C50.8854 44.8232 55.1136 44.817 59.3407 44.8058ZM4.60253 13.6531V44.7839H19.1112V13.6531H4.60253ZM22.1132 44.7839H36.6269V13.7035H22.1132V44.7839ZM59.4299 13.6665H39.7417V24.7592H59.4299V13.6665Z" fill="#434396"/>
<path d="M63.9914 9.92654C63.7827 9.92654 63.5724 9.94 63.362 9.94H0.647661C0.437318 9.94 0.228657 9.93159 0.0183134 9.92654C0.0183134 7.40242 0.0385067 4.88839 0.00148619 2.371C-0.00957691 2.06416 0.0412151 1.75823 0.150839 1.47143C0.260462 1.18464 0.426675 0.922833 0.639581 0.701606C0.852487 0.480378 1.10773 0.304251 1.39012 0.183717C1.67251 0.0631831 1.97626 0.000703667 2.28329 0C2.4095 0 2.53571 0 2.66191 0C22.1986 0 41.7359 0 61.2737 0C62.3288 0 63.2224 0.31636 63.7053 1.3075C63.8933 1.72188 63.9903 2.17175 63.9897 2.62677C64.0099 5.05666 63.9947 7.4916 63.9914 9.92654ZM51.6551 5.10378C51.6551 4.45424 51.2395 4.01336 50.6236 4.02177C50.0666 4.02177 49.5164 4.55857 49.5147 5.08864C49.5147 5.59346 50.0448 6.14709 50.5378 6.16223C51.2143 6.18074 51.6501 5.76847 51.6551 5.10378ZM53.4187 5.03815C53.4187 5.69442 53.8242 6.15381 54.4098 6.15886C54.9954 6.16391 55.5675 5.63553 55.5591 5.07686C55.5507 4.57203 55.0156 4.04196 54.5057 4.02345C54.3658 4.01006 54.2246 4.02654 54.0915 4.0718C53.9584 4.11706 53.8364 4.19007 53.7337 4.28599C53.6309 4.38192 53.5497 4.49857 53.4954 4.62824C53.4411 4.7579 53.4149 4.89762 53.4187 5.03815ZM57.3243 5.10883C57.3243 5.73986 57.7231 6.1555 58.3171 6.16055C58.6017 6.1557 58.8745 6.04635 59.0837 5.85334C59.2928 5.66033 59.4237 5.39713 59.4513 5.11388C59.4698 4.55352 58.8775 3.99822 58.2919 4.02682C57.7063 4.05543 57.3176 4.4677 57.3243 5.10883Z" fill="#39398C"/>
<path d="M4.60156 13.6523H19.1102V44.7832H4.60156V13.6523Z" fill="#34CCA9"/>
<path d="M22.1133 44.77V13.7031H36.627V44.77H22.1133Z" fill="#34CCA9"/>
<path d="M39.7035 44.7071C39.6968 39.9247 39.6895 35.1424 39.6816 30.36V27.7383H59.4152C59.4387 27.8769 59.4539 28.0168 59.4607 28.1573C59.4607 33.5914 59.4607 39.0245 59.4607 44.4564C59.4607 44.5405 59.4472 44.6247 59.4422 44.7071L59.3378 44.8064C55.1096 44.8131 50.8815 44.8193 46.6533 44.8249C44.3731 44.8249 42.0913 44.8131 39.8095 44.8064L39.7035 44.7071Z" fill="#34CCA9"/>
<path d="M59.4304 13.668V24.7607H39.7422V13.668H59.4304Z" fill="#34CCA9"/>
<path d="M39.7051 44.707L39.8128 44.8063L39.7051 44.707Z" fill="#EF8379"/>
<path d="M59.3398 44.8063L59.4442 44.707L59.3398 44.8063Z" fill="#EF8379"/>
<path d="M51.6561 5.10556C51.6561 5.77025 51.2152 6.18252 50.5387 6.16401C50.0457 6.14887 49.5139 5.59188 49.5156 5.09042C49.5156 4.56035 50.0676 4.03029 50.6246 4.02356C51.2404 4.01514 51.6611 4.45602 51.6561 5.10556Z" fill="#5AC6AD"/>
<path d="M53.4182 5.03759C53.4152 4.89748 53.4419 4.75833 53.4965 4.62927C53.5511 4.50021 53.6325 4.38418 53.7351 4.28881C53.8378 4.19343 53.9595 4.12088 54.0923 4.07592C54.225 4.03096 54.3657 4.01461 54.5053 4.02794C55.0101 4.04645 55.5502 4.58157 55.5587 5.08134C55.5587 5.64002 55.005 6.17008 54.4093 6.16335C53.8136 6.15662 53.4182 5.69386 53.4182 5.03759Z" fill="#F9D884"/>
<path d="M57.3242 5.11053C57.3242 4.4694 57.6843 4.05882 58.2918 4.02853C58.8993 3.99824 59.4697 4.55522 59.4512 5.11558C59.4236 5.39883 59.2927 5.66203 59.0836 5.85504C58.8744 6.04806 58.6016 6.1574 58.317 6.16225C57.723 6.1572 57.3309 5.74661 57.3242 5.11053Z" fill="#EF786B"/>
</svg>
