<svg width="64" height="73" viewBox="0 0 64 73" fill="none" xmlns="http://www.w3.org/2000/svg">
<path d="M44.2028 48.0586C46.2083 48.4825 48.2317 48.8387 50.2176 49.341C53.7139 50.2316 57.0785 51.457 60.0351 53.5925C61.6702 54.7734 63.063 56.1805 63.6899 58.1664C64.4398 60.5531 63.7897 62.6334 62.1849 64.4698C60.4287 66.4806 58.1596 67.7523 55.7515 68.764C51.5481 70.5309 47.1345 71.5336 42.6194 72.0751C40.5551 72.3245 38.4801 72.4669 36.4104 72.6646C36.305 72.6911 36.2046 72.7344 36.113 72.7929H31.9844L31.9933 65.387C33.0245 65.273 33.6408 64.6407 34.1645 63.7929C35.6642 61.3653 37.2119 58.9697 38.7473 56.567C40.5604 53.7279 42.3789 50.8917 44.2028 48.0586Z" fill="#20B895"/>
<path d="M31.993 65.3838L31.9841 72.7897H27.7183C27.0058 72.6988 26.2934 72.5795 25.581 72.5243C20.4692 72.1253 15.4411 71.29 10.5751 69.6407C7.91946 68.7501 5.37069 67.6048 3.18883 65.7952C1.70695 64.5663 0.485106 63.1449 0.114635 61.1643C-0.300364 58.9611 0.440579 57.1088 1.86547 55.4844C3.6252 53.4789 5.89612 52.2161 8.30597 51.1848C11.8682 49.6602 15.6085 48.7643 19.4343 48.1729C19.5723 48.1438 19.7085 48.107 19.8422 48.0625C20.0114 48.319 20.186 48.5701 20.3498 48.8284C23.5558 53.8737 26.7559 58.9202 29.95 63.9678C30.4291 64.723 30.9831 65.325 31.9698 65.2805L31.993 65.3838Z" fill="#34CCA9"/>
<path d="M31.9921 65.3852L31.9707 65.2819C31.9707 64.9506 31.9832 64.6193 31.9832 64.2898C31.9832 54.2372 31.9832 44.1846 31.9832 34.132C32.7312 34.0323 33.4971 34.0002 34.2274 33.8221C38.5145 32.7766 41.3251 30.1067 42.3154 25.8267C43.3164 21.5039 41.92 17.8616 38.4789 15.0456C36.5962 13.505 34.3663 12.9083 31.9832 12.7551V0.00237196C36.0673 -0.0564047 39.8771 0.97842 43.4197 2.96792C47.4066 5.19409 50.6574 8.53513 52.7737 12.5815C54.8899 16.6279 55.7795 21.2038 55.3335 25.7483C54.9363 29.836 53.4812 33.5015 51.237 36.9177C48.9215 40.4318 46.7147 44.0118 44.4688 47.5634C44.369 47.7219 44.2906 47.8929 44.1998 48.0567C42.3831 50.8923 40.5658 53.7284 38.7478 56.5651C37.2125 58.9678 35.6647 61.3634 34.165 63.7911C33.6396 64.6389 33.0233 65.2712 31.9921 65.3852Z" fill="#39398C"/>
<path d="M31.9849 34.1321C31.9849 44.1847 31.9849 54.2373 31.9849 64.2899C31.9849 64.6194 31.9849 64.9507 31.9724 65.282C30.9857 65.3265 30.4317 64.7245 29.9526 63.9693C26.7573 58.9193 23.5572 53.8728 20.3524 48.8298C20.1886 48.5716 20.014 48.3205 19.8448 48.064C17.3263 44.085 14.8072 40.1072 12.2876 36.1305C9.0299 30.992 7.85615 25.4243 8.90344 19.4201C10.5599 9.88229 17.8785 2.33216 27.3344 0.467337C28.8572 0.166329 30.4371 0.153864 31.9902 0.0078125V12.7606C31.4719 12.8122 30.9536 12.8478 30.4389 12.9173C22.602 13.986 18.639 23.3439 23.3554 29.6847C25.4998 32.5701 28.4102 33.9985 31.9849 34.1321Z" fill="#434396"/>
<path d="M31.9859 34.1308C28.4112 33.9972 25.4991 32.5688 23.3511 29.678C18.6347 23.3373 22.5906 13.9757 30.4346 12.9106C30.9493 12.8412 31.4676 12.8056 31.9859 12.7539C34.3691 12.9 36.599 13.5038 38.4816 15.0444C41.9227 17.8603 43.3191 21.5027 42.3182 25.8255C41.3279 30.1001 38.5173 32.7718 34.2301 33.8209C33.4999 33.999 32.734 34.0311 31.9859 34.1308Z" fill="#34CCA9"/>
</svg>
