<svg width="60" height="91" viewBox="0 0 60 91" fill="none" xmlns="http://www.w3.org/2000/svg">
<path d="M15.0587 23.6083C15.0587 23.6083 9.70366 19.6111 10.5954 9.10156L18.4258 10.4368L15.0587 23.6083Z" fill="#1C1C20"/>
<path d="M15.1281 15.3672L14.1928 32.0616C14.08 33.5383 14.5543 35.0011 15.5191 36.1524C16.484 37.3037 17.867 38.0569 19.3869 38.259C20.2436 38.3636 21.1136 38.2887 21.9377 38.0394C22.7617 37.7901 23.5203 37.3723 24.1619 36.8144C24.8035 36.2565 25.313 35.5716 25.6555 34.8065C25.9981 34.0414 26.1657 33.214 26.147 32.3807L25.9817 16.7696L15.1281 15.3672Z" fill="#FDC2AB"/>
<path d="M26.0938 27.2999V25.0031C26.0938 25.0031 21.252 25.8975 17.4717 21.5938C17.476 21.5938 19.4249 26.183 26.0938 27.2999Z" fill="#1C1C20"/>
<path d="M17.0436 2.98239C16.3723 3.35784 15.7661 3.83245 15.247 4.38898C10.3879 9.58287 14.3074 18.795 19.2187 22.7419C21.9463 24.9294 25.77 25.7776 28.9631 24.3668C33.6525 22.301 34.7879 16.9139 33.4959 12.2659C32.5302 8.8061 30.3116 5.61922 27.2186 3.75076C24.1257 1.88231 20.0887 1.26508 17.0436 2.98239Z" fill="#FDC2AB"/>
<path d="M17.3242 20.0122C16.8693 20.4847 16.2923 20.8318 15.6523 21.0178C15.0124 21.2038 14.3327 21.2219 13.6831 21.0703C13.0376 20.8748 12.4513 20.5301 11.9752 20.0662C11.4991 19.6023 11.1476 19.0331 10.9512 18.4082C10.5945 17.2662 10.8076 15.9268 11.6342 15.1626C12.0753 14.773 12.6541 14.5612 13.2519 14.5706C13.8497 14.58 14.4212 14.8098 14.849 15.213L17.3242 20.0122Z" fill="#FDC2AB"/>
<path d="M14.6836 18.4108C13.9832 18.5283 13.3437 18.1966 13.2524 17.6718C13.2335 17.462 13.2833 17.2519 13.395 17.0711C13.5066 16.8902 13.6744 16.7478 13.8745 16.6641" stroke="#D67374" stroke-width="2.82229" stroke-miterlimit="10" stroke-linecap="round"/>
<path d="M29.5136 14.3067C29.6851 14.1666 29.832 14.0007 29.9486 13.8154C30.0592 13.6403 30.1538 13.4563 30.2314 13.2653L30.4141 12.8455H29.979C29.7177 12.8345 29.4609 12.7761 29.2221 12.6733C28.9567 12.5641 28.6914 12.4382 28.3955 12.3164C28.5387 12.5942 28.7419 12.839 28.9915 13.0344C29.2538 13.2675 29.5858 13.4145 29.9399 13.4543L29.6702 13.0344C29.5761 13.2179 29.499 13.409 29.4396 13.6054C29.3729 13.8093 29.3377 14.0215 29.3352 14.2353L29.5136 14.3067Z" fill="#D67374"/>
<path d="M31.0508 15.3008C30.7885 15.5971 30.4786 15.8509 30.1329 16.0523C29.8246 16.2263 29.472 16.3136 29.1149 16.3042C28.7413 16.2765 28.3744 16.1929 28.0274 16.0565C27.849 15.9684 27.6576 15.9012 27.4706 15.813C27.2835 15.7248 27.1008 15.6325 26.892 15.5527C27.0158 15.726 27.1509 15.8915 27.2965 16.0481C27.4567 16.1969 27.6251 16.3371 27.8012 16.468C28.1887 16.7196 28.6398 16.8647 29.1062 16.8879C29.5873 16.8965 30.0538 16.7284 30.4113 16.4176C30.7511 16.1273 30.9769 15.7329 31.0508 15.3008Z" fill="#D67374"/>
<path d="M24.4924 10.8379C24.7269 11.3079 24.8881 11.8087 24.9709 12.3242C25.0116 12.5557 24.9876 12.7934 24.9013 13.0128C24.8525 13.1046 24.7823 13.1842 24.6962 13.2454C24.6102 13.3066 24.5106 13.3477 24.4054 13.3655C23.9703 13.4915 23.4918 13.2018 23.1003 12.8575C22.7176 12.4876 22.3844 12.0729 22.1084 11.623C22.0871 11.5926 22.0547 11.5709 22.0177 11.5624C21.9806 11.5538 21.9416 11.559 21.9083 11.5769C21.8788 11.595 21.8569 11.6227 21.8465 11.655C21.8362 11.6873 21.838 11.7221 21.8518 11.7532C22.0885 12.2661 22.4103 12.7384 22.8045 13.1514C23.023 13.3685 23.2811 13.545 23.5658 13.672C23.8614 13.8211 24.2031 13.8614 24.5272 13.7854C24.6966 13.7498 24.8552 13.6767 24.9904 13.5717C25.1255 13.4668 25.2335 13.333 25.3058 13.1808C25.4205 12.8916 25.4447 12.5762 25.3755 12.2739C25.2595 11.7221 25.0366 11.1964 24.7186 10.7245C24.7013 10.7015 24.6761 10.6853 24.6474 10.6788C24.6188 10.6724 24.5887 10.6762 24.5627 10.6895C24.5367 10.7028 24.5166 10.7247 24.5061 10.7512C24.4956 10.7777 24.4953 10.807 24.5054 10.8337L24.4924 10.8379Z" fill="#1C1C20"/>
<path d="M30.8434 8.1402C31.0268 8.54337 31.1597 8.96624 31.2393 9.39982C31.2839 9.58915 31.2839 9.78572 31.2393 9.97505C31.2151 10.048 31.1707 10.1131 31.1109 10.1635C31.051 10.2138 30.9781 10.2474 30.9 10.2606C30.5737 10.3571 30.1952 10.0884 29.8951 9.7861C29.5839 9.45874 29.3084 9.10137 29.0729 8.71962C29.0556 8.68677 29.0255 8.6619 28.9892 8.65048C28.9529 8.63907 28.9133 8.64204 28.8793 8.65874C28.8453 8.67544 28.8195 8.70451 28.8077 8.73955C28.7959 8.77459 28.7989 8.81273 28.8162 8.84558C29.0024 9.28174 29.2562 9.68806 29.5688 10.0506C29.7353 10.2405 29.9321 10.4035 30.1517 10.5335C30.4001 10.6847 30.6999 10.7359 30.987 10.6762C31.1385 10.6433 31.2781 10.5718 31.3913 10.4691C31.5045 10.3665 31.5872 10.2365 31.6308 10.0926C31.696 9.84036 31.696 9.5765 31.6308 9.32424C31.5156 8.86524 31.3215 8.42812 31.0566 8.03103C31.0395 8.00519 31.0127 7.98678 30.9819 7.97973C30.951 7.97267 30.9185 7.97752 30.8913 7.99324C30.867 8.00866 30.8489 8.0317 30.8402 8.05848C30.8315 8.08526 30.8326 8.11413 30.8434 8.1402Z" fill="#1C1C20"/>
<path d="M14.7833 2.21389C17.4451 0.662209 20.6035 0.105082 23.6619 0.647742C26.3155 1.06762 29.7782 2.38604 30.0871 4.19572C30.6222 7.31962 21.3563 7.01311 19.5815 6.71499C17.8066 6.41688 16.4537 7.30282 17.3325 9.39802C17.9589 10.9054 19.29 16.9139 14.0698 14.7431C9.82845 12.9628 8.74527 5.87943 14.7833 2.21389Z" fill="#1C1C20"/>
<path d="M43.4557 47.6157L46.9619 36.0312L53.957 38.5883L50.7683 50.1056L43.4557 47.6157Z" fill="#FDC2AB"/>
<path d="M43.7563 44.5572L45.5311 40.1484L53.2266 42.0295L51.8345 47.3368L43.7563 44.5572Z" fill="#34CCA9"/>
<path d="M34.3706 65.9493C34.3706 65.9493 42.3488 42.0162 44.3238 42.5075L52.8284 44.5061C54.8687 45.0057 50.5402 70.0179 50.5402 70.0179C50.155 71.7789 49.0924 73.3335 47.5666 74.3682C46.0409 75.403 44.1654 75.841 42.3184 75.5939C37.9247 74.9893 33.2221 70.0809 34.3706 65.9493Z" fill="#34CCA9"/>
<path d="M36.6947 36.625C36.6947 36.625 44.6076 51.4005 35.4549 79.8472L23.7573 69.8248L36.6947 36.625Z" fill="#34CCA9"/>
<path d="M0.132885 82.7963C0.132885 82.7963 14.5667 93.9735 28.322 84.2869L29.092 56.7428L31.0234 38.0414L28.322 33.6663L20.2785 31.6719L10.6559 32.5914L9.39439 49.0297L0.132885 82.7963Z" fill="#1C1C20"/>
<path d="M15.4122 32.4179C15.4122 32.4179 21.5894 38.4138 28.1016 32.4179L25.9004 27.1484L15.3034 27.963L15.4122 32.4179Z" fill="#FDC2AB"/>
<path d="M27.7561 45.848C27.0297 56.7648 26.0161 76.772 27.0384 89.9352C27.0589 90.1059 27.1332 90.2665 27.2513 90.3952C27.3694 90.5238 27.5255 90.6144 27.6987 90.6547C27.8718 90.695 28.0536 90.6831 28.2195 90.6205C28.3853 90.5579 28.5273 90.4476 28.6262 90.3047L28.6653 90.2417C29.7438 88.5308 30.3683 86.5896 30.4837 84.5901L32.1716 55.1986L36.8481 39.6632C37.1037 38.8149 37.1079 37.9145 36.8604 37.064C36.6128 36.2135 36.1233 35.447 35.4473 34.8513C33.9857 33.5791 29.9617 30.4636 26.612 29.0234L26.8034 30.0269C27.7896 35.2432 28.1095 40.5565 27.7561 45.848Z" fill="#34CCA9"/>
<path d="M39.7385 50.1016C39.7385 50.1016 40.0561 57.3445 37.3503 73.2411" stroke="#2BB092" stroke-width="2.84505" stroke-linecap="round" stroke-linejoin="round"/>
<path d="M16.661 32.3877C18.3891 36.7316 19.171 41.3726 18.9579 46.0212C18.5968 54.7169 16.8481 72.9732 8.86553 89.4576C8.59116 90.0263 8.11843 90.4838 7.52998 90.7501C6.94154 91.0164 6.27483 91.0746 5.64641 90.9146C2.76226 90.1882 -2.7059 88.03 -7.77383 79.7752L-5.21159 37.7538C-5.16258 36.9418 -4.91065 36.1534 -4.47734 35.4559C-4.04403 34.7583 -3.44221 34.1724 -2.7233 33.7481C-0.226303 32.266 9.08304 29.4192 14.3815 28C15.3214 29.3688 16.0867 30.842 16.661 32.3877Z" fill="#34CCA9"/>
<path d="M-2.75096 33.7578C-2.75096 33.7578 8.87705 44.2548 0.194109 65.8281L-1.2632 73.4488C-1.46412 74.4935 -1.88333 75.4878 -2.49526 76.371C-3.1072 77.2542 -3.89905 78.0079 -4.82256 78.5862C-5.74608 79.1645 -6.78191 79.5552 -7.86695 79.7346C-8.95198 79.9139 -10.0635 79.8782 -11.1337 79.6294C-13.101 79.1667 -14.8174 78.0096 -15.9447 76.3861C-17.072 74.7626 -17.5284 72.7904 -17.224 70.8582C-15.3926 59.1856 -10.851 36.9447 -2.75096 33.7578Z" fill="#34CCA9"/>
<path d="M-0.464947 36.625C-0.464947 36.625 5.69926 42.1884 2.37572 59.0843C-0.947818 75.9802 -3.30561 85.5367 -3.30561 85.5367" stroke="#2BB092" stroke-width="2.84505" stroke-linecap="round" stroke-linejoin="round"/>
<path d="M46.8624 36.5301C46.7145 34.7078 45.9924 30.8029 44.4654 29.3921C44.6247 29.1891 44.846 29.0394 45.098 28.9641C45.3501 28.8888 45.6203 28.8916 45.8706 28.9723C47.0481 29.4838 48.0762 30.2685 48.8635 31.2564C48.8635 31.2564 54.0185 23.1905 54.7058 23.8329C55.3931 24.4754 52.6395 28.6238 52.6395 28.6238C52.6395 28.6238 56.7417 22.9638 57.2072 23.8329C57.3899 24.1604 56.385 24.5593 54.8233 28.5818C54.8233 28.5818 58.8733 23.8035 58.9516 24.9708C59.0517 26.4362 56.7983 29.4551 56.7983 29.4551C56.7983 29.4551 59.9869 26.7091 60 27.658C60 28.3508 55.3931 35.5056 53.8358 38.8646C52.7134 38.6463 46.7014 36.8492 46.8624 36.5301Z" fill="#FDC2AB"/>
<path d="M48.8635 31.2344C48.8635 31.2344 51.0038 33.0314 50.2425 35.4961" stroke="#D67374" stroke-width="1.13802" stroke-miterlimit="10" stroke-linecap="round"/>
</svg>
