<svg width="18" height="18" viewBox="0 0 18 18" fill="none" xmlns="http://www.w3.org/2000/svg">
<path d="M15.7493 12.75C15.7493 13.5788 14.574 14.25 13.1243 14.25C11.6745 14.25 10.5 13.578 10.5 12.75" stroke="#7D7D82" stroke-linecap="round" stroke-linejoin="round"/>
<path d="M10.5 10.5C10.5 11.3288 11.6753 12 13.125 12C14.5747 12 15.75 11.3288 15.75 10.5" stroke="#7D7D82" stroke-linecap="round" stroke-linejoin="round"/>
<path d="M10.5 10.5C10.5008 9.672 11.676 9 13.125 9C14.574 9 15.75 9.67125 15.7493 10.5V15C15.7493 15.8288 14.574 16.5 13.1243 16.5C11.6745 16.5 10.5 15.828 10.5 15V10.5V10.5Z" stroke="#7D7D82" stroke-linecap="round" stroke-linejoin="round"/>
<path d="M4.5 7.875H6" stroke="#7D7D82" stroke-linecap="round" stroke-linejoin="round"/>
<path d="M6.75 9.75H3.75C2.92125 9.75 2.25 9.07875 2.25 8.25V3C2.25 2.17125 2.92125 1.5 3.75 1.5H6.75C7.57875 1.5 8.25 2.17125 8.25 3V8.25C8.25 9.07875 7.57875 9.75 6.75 9.75Z" stroke="#7D7D82" stroke-linecap="round" stroke-linejoin="round"/>
<path d="M7.5 15.75H4.2855C3.576 15.75 3 15.174 3 14.4645V12.75" stroke="#7D7D82" stroke-linecap="round" stroke-linejoin="round"/>
<path d="M11.25 2.25H13.7145C14.424 2.25 15 2.826 15 3.5355V6" stroke="#7D7D82" stroke-linecap="round" stroke-linejoin="round"/>
</svg>
