<svg width="70" height="70" viewBox="0 0 70 70" fill="none" xmlns="http://www.w3.org/2000/svg">
<g filter="url(#filter0_dd_5494_5482)">
<path d="M32.3819 2H37.5093C37.6298 2.05626 37.7567 2.09794 37.8871 2.12416C40.2108 2.30339 42.5032 2.7703 44.7119 3.5142C57.042 7.90025 64.3958 16.5266 66.6627 29.4446C66.7976 30.2111 66.8894 30.9831 67 31.755V36.3813C66.9568 36.5486 66.9002 36.7133 66.8732 36.8833C66.7139 37.8901 66.5628 38.8968 66.409 39.9036C66.1904 39.712 65.961 39.5338 65.7559 39.3287L56.4753 30.0546C56.2864 29.8629 56.0759 29.6929 55.8735 29.5147C55.6036 29.5147 55.3338 29.4931 55.0639 29.4931H39.4874V13.177H30.4631V29.5012H14.2173C14.1873 29.5556 14.1646 29.6137 14.1499 29.674C14.1499 32.5063 14.1499 35.3385 14.1499 38.1708C14.1499 38.2949 14.2902 38.4164 14.3658 38.5379C14.4621 38.7521 14.5835 38.9541 14.7274 39.1398C19.7774 44.2033 24.832 49.2605 29.891 54.3115C30.0762 54.4751 30.2719 54.6266 30.4766 54.7649L30.6251 54.8972C30.7905 55.1342 30.9707 55.3605 31.1648 55.5747C34.2232 58.6336 37.2817 61.6926 40.3402 64.7516C40.5452 64.9568 40.7261 65.1862 40.915 65.4048C40.8623 65.4357 40.8061 65.4602 40.7477 65.4777C36.5581 66.2474 32.2565 66.1657 28.0991 65.2375C10.8279 61.3615 -0.0719483 44.2789 3.77091 27.0963C5.17346 20.7531 8.47325 14.9871 13.2316 10.5649C17.9899 6.14281 23.9813 3.27405 30.4092 2.34008C31.0622 2.24291 31.7207 2.11336 32.3819 2Z" fill="#434396"/>
<path d="M14.3624 38.5366C14.2868 38.4152 14.1465 38.2937 14.1465 38.1696C14.1465 35.3391 14.1465 32.5068 14.1465 29.6728C14.1612 29.6124 14.1839 29.5543 14.214 29.5H30.4598V13.1758H39.484V29.4892H55.0659C55.3358 29.4892 55.6057 29.5027 55.8755 29.5108V38.5366H39.5029V54.8959H30.6217L30.4732 54.7637C30.4732 49.4356 30.4777 44.1076 30.4867 38.7796C30.4772 38.7063 30.4581 38.6346 30.4301 38.5663C30.382 38.548 30.3323 38.5345 30.2816 38.5258L14.3624 38.5366Z" fill="#34CCA9"/>
<path d="M30.623 54.8969H39.5043V38.5375H55.8796V29.5117C56.082 29.6926 56.2925 29.8626 56.4814 30.0515L65.762 39.3284C65.9671 39.5335 66.1965 39.7117 66.4151 39.9033C66.0157 41.485 65.7539 43.1179 65.1926 44.6402C61.9407 53.4825 55.9956 59.8362 47.3141 63.534C45.4764 64.3168 43.4983 64.7648 41.5795 65.3532C41.3575 65.3988 41.1315 65.4223 40.9049 65.4234C40.716 65.2048 40.5351 64.9753 40.33 64.7702C37.2716 61.7112 34.2131 58.6522 31.1547 55.5932C30.9628 55.3727 30.7852 55.1401 30.623 54.8969Z" fill="#39398C"/>
<path d="M14.3633 38.5391H30.2852C30.3359 38.5477 30.3856 38.5613 30.4337 38.5795C30.4617 38.6479 30.4808 38.7195 30.4903 38.7928C30.4903 44.1208 30.4858 49.4489 30.4769 54.7769C30.2721 54.6386 30.0765 54.4871 29.8912 54.3235C24.8394 49.2635 19.7839 44.2027 14.7249 39.141C14.581 38.9553 14.4596 38.7533 14.3633 38.5391Z" fill="#39398C"/>
</g>
<defs>
<filter id="filter0_dd_5494_5482" x="0" y="0" width="70" height="70" filterUnits="userSpaceOnUse" color-interpolation-filters="sRGB">
<feFlood flood-opacity="0" result="BackgroundImageFix"/>
<feColorMatrix in="SourceAlpha" type="matrix" values="0 0 0 0 0 0 0 0 0 0 0 0 0 0 0 0 0 0 127 0" result="hardAlpha"/>
<feMorphology radius="1" operator="erode" in="SourceAlpha" result="effect1_dropShadow_5494_5482"/>
<feOffset dy="1"/>
<feGaussianBlur stdDeviation="1"/>
<feComposite in2="hardAlpha" operator="out"/>
<feColorMatrix type="matrix" values="0 0 0 0 0.0627451 0 0 0 0 0.0941176 0 0 0 0 0.156863 0 0 0 0.1 0"/>
<feBlend mode="normal" in2="BackgroundImageFix" result="effect1_dropShadow_5494_5482"/>
<feColorMatrix in="SourceAlpha" type="matrix" values="0 0 0 0 0 0 0 0 0 0 0 0 0 0 0 0 0 0 127 0" result="hardAlpha"/>
<feOffset dy="1"/>
<feGaussianBlur stdDeviation="1.5"/>
<feComposite in2="hardAlpha" operator="out"/>
<feColorMatrix type="matrix" values="0 0 0 0 0.0627451 0 0 0 0 0.0941176 0 0 0 0 0.156863 0 0 0 0.1 0"/>
<feBlend mode="normal" in2="effect1_dropShadow_5494_5482" result="effect2_dropShadow_5494_5482"/>
<feBlend mode="normal" in="SourceGraphic" in2="effect2_dropShadow_5494_5482" result="shape"/>
</filter>
</defs>
</svg>
