<svg width="64" height="64" viewBox="0 0 64 64" fill="none" xmlns="http://www.w3.org/2000/svg">
<path d="M45.2329 16.1641C48.0517 19.7434 50.8456 23.3461 53.7129 26.8871C54.3354 27.657 54.4773 28.3736 54.3571 29.3156C53.7012 34.4533 53.1037 39.5976 52.4812 44.7403C51.8347 50.0851 51.1849 55.4327 50.5318 60.7831C50.4016 61.8554 50.2598 62.9277 50.1229 64H49.3719C49.2718 63.9424 49.1646 63.898 49.0531 63.868C46.3271 63.5228 43.6034 63.1832 40.8819 62.8492L29.1273 61.3693C27.4584 61.1589 25.8011 60.9434 24.0938 60.7246C24.2139 59.7425 24.3291 58.8172 24.4376 57.8852C24.6601 55.9655 24.8826 54.0453 25.1051 52.1245C25.3605 51.8539 25.6058 51.575 25.8729 51.3111C31.9212 45.257 37.9723 39.2063 44.0262 33.1588C44.1827 33.013 44.3056 32.8348 44.3863 32.6367C44.467 32.4385 44.5036 32.2251 44.4935 32.0114C44.4818 26.9305 44.4935 21.8479 44.4935 16.767L45.2329 16.1641Z" fill="#434396"/>
<path d="M0.00500669 39.9949C0.171903 39.8445 0.355489 39.7042 0.51571 39.5439C5.96766 34.1022 11.4196 28.6594 16.8716 23.2155C19.7911 20.306 22.7218 17.4081 25.6637 14.5219C25.9298 14.2815 26.2718 14.142 26.63 14.1277C31.7504 14.0993 36.8708 14.1027 41.9845 14.0977L44.4879 14.1244C44.4961 14.1596 44.4925 14.1965 44.4779 14.2296C44.311 14.3833 44.1358 14.5319 43.9772 14.6939C40.6526 18.0177 37.3281 21.341 34.0035 24.6637C33.8039 24.8362 33.5913 24.9932 33.3676 25.133L32.0992 23.9371C31.2547 24.7872 30.4302 25.6073 29.6241 26.4425C29.3421 26.7348 29.0867 26.7515 28.6878 26.6696C27.87 26.5026 27.0189 26.3356 26.1961 26.3773C22.8281 26.5444 20.3547 30.1053 21.4863 33.5477C21.7583 34.3728 22.3207 35.0994 22.763 35.8727L20.1227 38.3964C19.3617 37.5479 19.5836 36.6911 20.0426 35.9813L17.4023 33.3707C15.947 34.9607 15.523 36.8565 16.2507 38.9977C16.4176 39.4687 16.3308 39.756 15.9803 40.0834C15.1642 40.8467 14.3848 41.6501 13.5637 42.4618L14.7603 43.7412C14.3865 44.1738 14.031 44.6281 13.6321 45.039C12.2152 46.4971 10.7815 47.9419 9.35622 49.3934C6.40882 46.4526 3.46032 43.5113 0.510703 40.5694C0.343806 40.4024 0.17691 40.2688 0 40.1185L0.00500669 39.9949Z" fill="#434396"/>
<path d="M44.4688 14.2283C44.4834 14.1952 44.4869 14.1583 44.4788 14.1231C44.6457 13.9377 44.8009 13.7422 44.9795 13.5685C49.282 9.2593 53.5852 4.95006 57.8889 0.640818C58.0634 0.442814 58.224 0.232974 58.3696 0.012803C61.1501 -0.200989 63.8771 2.29437 63.9923 5.12878C64.0707 6.94434 63.4799 8.46927 62.1798 9.72864C61.0432 10.8293 59.9751 12.0119 58.7501 13.0023C55.8494 15.3407 51.6203 15.5979 48.4025 13.6938C47.9919 13.45 47.7733 13.49 47.4679 13.8224C46.7402 14.6208 45.9742 15.3858 45.2248 16.1608L44.5038 16.7637L44.4688 14.2283ZM50.7207 10.6105C51.7077 11.0843 52.8134 11.253 53.8967 11.095C54.9799 10.937 55.9915 10.4596 56.8024 9.72363C57.7904 8.79998 58.7401 7.83124 59.6797 6.85915C60.0179 6.51538 60.2084 6.05283 60.2103 5.57039C60.2122 5.08794 60.0254 4.62389 59.6899 4.27745C59.3544 3.931 58.8968 3.72966 58.4149 3.71645C57.933 3.70325 57.4651 3.87924 57.1112 4.2068C54.9749 6.30964 52.8737 8.44923 50.7207 10.6105Z" fill="#20B895"/>
<path d="M58.3669 0.011135C58.2213 0.231306 58.0607 0.441146 57.8862 0.63915C53.5859 4.9495 49.2827 9.25875 44.9768 13.5669C44.8099 13.7339 44.643 13.936 44.4761 14.1214L41.9727 14.0947C43.2828 12.7585 44.5879 11.4223 45.9047 10.0944C48.6841 7.30289 51.4646 4.51635 54.2462 1.73483C55.3811 0.589042 56.7296 -0.0439833 58.3669 0.011135Z" fill="#34CCA9"/>
<path d="M44.4699 14.2266L44.505 16.7653C44.505 21.8462 44.4899 26.9288 44.505 32.0097C44.515 32.2234 44.4784 32.4368 44.3977 32.635C44.317 32.8332 44.1941 33.0113 44.0377 33.1572C37.976 39.2001 31.9215 45.2509 25.8743 51.3094C25.6123 51.5733 25.3619 51.8522 25.1066 52.1228C23.3364 53.8822 21.5662 55.6404 19.7959 57.3975C19.3987 57.7933 19.0232 58.2126 18.651 58.6067L9.35156 49.3903C10.7769 47.9389 12.2105 46.4941 13.6274 45.036C14.0263 44.6251 14.3818 44.1708 14.7557 43.7382L14.8608 43.7482L16.1776 45.1479C17.0522 44.2727 17.9017 43.4492 18.7161 42.5924C18.9915 42.3018 19.2252 42.2583 19.579 42.4137C20.5784 42.8479 21.693 42.9401 22.75 42.6759C24.8729 42.1631 26.2815 40.8386 26.8974 38.7625C27.5132 36.6864 26.9658 34.8257 25.4988 33.2373C25.4988 33.1989 25.4988 33.1622 25.4905 33.1254C26.0429 32.5909 26.607 32.0682 27.1411 31.517C27.4548 31.1946 27.7202 30.8288 28.0072 30.4831L28.1141 30.4931C28.6849 31.2581 28.8351 32.0515 28.3561 32.9333C28.3256 33.0295 28.3186 33.1316 28.3357 33.231C28.3528 33.3304 28.3936 33.4242 28.4545 33.5046C29.1071 34.2027 29.8014 34.8642 30.469 35.549C30.7193 35.8045 30.8929 35.7928 31.1182 35.5072C32.43 33.8587 32.7254 32.0231 32.0578 30.0588C31.8909 29.5678 31.9727 29.3189 32.3115 28.9966C33.136 28.2116 33.9304 27.3931 34.7732 26.5497L33.3696 25.2352C33.3696 25.2001 33.3696 25.165 33.3579 25.1316C33.5813 24.9907 33.7939 24.8332 33.9938 24.6606C37.3217 21.3402 40.6463 18.0169 43.9676 14.6909C44.1278 14.5289 44.3014 14.3802 44.4699 14.2266Z" fill="#39398C"/>
<path d="M28.1129 30.4954L28.0061 30.4854C27.18 29.7822 26.1052 29.844 25.4159 30.6341C25.0976 30.9757 24.9268 31.4291 24.9405 31.896C24.9543 32.3629 25.1515 32.8055 25.4893 33.1277C25.4893 33.1645 25.4893 33.2012 25.4977 33.2397C25.1687 33.4777 24.8549 33.736 24.558 34.013C23.9722 34.6176 23.4231 35.254 22.859 35.8786L22.7522 35.8653C22.3183 35.092 21.7508 34.3621 21.4754 33.5403C20.3389 30.0979 22.8106 26.5336 26.1853 26.3699C27.0114 26.3298 27.8542 26.4918 28.677 26.6622C29.0759 26.7441 29.3313 26.7274 29.6133 26.4351C30.4178 25.5999 31.2439 24.7865 32.0884 23.9297L33.3568 25.1256C33.3568 25.1607 33.3652 25.1957 33.3685 25.2308L28.1129 30.4954Z" fill="#34CCA9"/>
<path d="M14.8584 43.7517L14.7533 43.7417L13.5566 42.4623C14.3778 41.6505 15.1572 40.8471 15.9733 40.0838C16.3238 39.7498 16.4039 39.4692 16.2437 38.9982C15.516 36.8569 15.9399 34.9612 17.3953 33.3711L20.0322 35.975C19.5733 36.6849 19.3513 37.5417 20.1123 38.3902C20.1123 38.4253 20.1123 38.4603 20.1207 38.4954L14.8584 43.7517Z" fill="#34CCA9"/>
<path d="M20.1216 38.4923C20.1216 38.4572 20.1216 38.4221 20.1133 38.387L22.7536 35.8633L22.8604 35.8766C23.568 37.0158 23.5124 37.9255 22.6935 38.6058C21.9959 39.1871 21.0846 39.147 20.1216 38.4923Z" fill="#39398C"/>
<path d="M20.1216 38.4929C21.0846 39.1476 21.9959 39.1877 22.6968 38.6065C23.5146 37.9283 23.5703 37.0186 22.8637 35.8773C23.4278 35.2526 23.9769 34.6162 24.5627 34.0116C24.8596 33.7346 25.1734 33.4763 25.5024 33.2383C26.9694 34.8267 27.5185 36.6773 26.901 38.7635C26.2834 40.8496 24.8732 42.1641 22.7502 42.6769C21.6932 42.9411 20.5786 42.8489 19.5792 42.4146C19.2254 42.2626 18.9917 42.3027 18.7164 42.5933C17.9019 43.4502 17.0474 44.2736 16.1779 45.1488L14.8594 43.7492L20.1216 38.4929Z" fill="#20B895"/>
<path d="M28.1133 30.4962L33.3688 25.2383L34.7724 26.5528C33.9296 27.3962 33.1352 28.2147 32.3107 28.9997C31.9769 29.322 31.8918 29.5709 32.057 30.062C32.7246 32.0262 32.4292 33.8618 31.1174 35.5103C30.8921 35.7959 30.7185 35.8076 30.4682 35.5521C29.8006 34.8673 29.1063 34.2058 28.4537 33.5077C28.3928 33.4273 28.3521 33.3335 28.3349 33.2341C28.3178 33.1347 28.3248 33.0326 28.3553 32.9365C28.8343 32.0546 28.6841 31.2612 28.1133 30.4962Z" fill="#20B895"/>
<path d="M25.489 33.1268C25.1512 32.8046 24.954 32.362 24.9402 31.8951C24.9265 31.4282 25.0973 30.9748 25.4156 30.6331C26.1049 29.8431 27.1797 29.7813 28.0058 30.4845C27.7187 30.8302 27.4534 31.196 27.1396 31.5184C26.6055 32.0696 26.0398 32.5923 25.489 33.1268Z" fill="#434396"/>
</svg>
