<svg width="40" height="40" viewBox="0 0 40 40" fill="none" xmlns="http://www.w3.org/2000/svg">
<rect x="10" y="4.44531" width="20" height="31.1111" rx="4" fill="#E9F3FD"/>
<path d="M21.666 13.3333V5" stroke="#218AEF" stroke-width="1.5" stroke-linecap="round" stroke-linejoin="round"/>
<path d="M30 5V13.3333" stroke="#218AEF" stroke-width="1.5" stroke-linecap="round" stroke-linejoin="round"/>
<path d="M27.5 7.5L30 5L32.5 7.5" stroke="#218AEF" stroke-width="1.5" stroke-linecap="round" stroke-linejoin="round"/>
<path d="M19.166 10.832L21.666 13.332L24.166 10.832" stroke="#218AEF" stroke-width="1.5" stroke-linecap="round" stroke-linejoin="round"/>
<path d="M30 20V31.6667C30 32.5507 29.6488 33.3986 29.0237 34.0237C28.3986 34.6488 27.5507 35 26.6667 35H13.3333C12.4493 35 11.6014 34.6488 10.9763 34.0237C10.3512 33.3986 10 32.5507 10 31.6667V8.33333C10 7.44928 10.3512 6.60143 10.9763 5.97631C11.6014 5.35119 12.4493 5 13.3333 5H15" stroke="#218AEF" stroke-width="1.5" stroke-linecap="round" stroke-linejoin="round"/>
<path d="M16.666 30H23.3327" stroke="#218AEF" stroke-width="1.5" stroke-linecap="round" stroke-linejoin="round"/>
</svg>
