<svg width="40" height="40" viewBox="0 0 40 40" fill="none" xmlns="http://www.w3.org/2000/svg">
<g clip-path="url(#clip0_5478_16382)">
<path d="M24.2121 29.2344H16.4805" stroke="#CF2F2F" stroke-width="1.5" stroke-linecap="round" stroke-linejoin="round"/>
<path d="M30.0012 34.9987C33.198 34.9987 35.7896 32.4177 35.7896 29.2337C35.7896 26.0498 33.198 23.4688 30.0012 23.4688C26.8044 23.4688 24.2129 26.0498 24.2129 29.2337C24.2129 32.4177 26.8044 34.9987 30.0012 34.9987Z" fill="#FAEAEA" stroke="#CF2F2F" stroke-width="1.5" stroke-linecap="round" stroke-linejoin="round"/>
<path d="M30 16.668V23.4713" stroke="#CF2F2F" stroke-width="1.5" stroke-linecap="round" stroke-linejoin="round"/>
<path d="M10.0012 16.53C13.198 16.53 15.7896 13.9489 15.7896 10.765C15.7896 7.58108 13.198 5 10.0012 5C6.80442 5 4.21289 7.58108 4.21289 10.765C4.21289 13.9489 6.80442 16.53 10.0012 16.53Z" fill="#FAEAEA" stroke="#CF2F2F" stroke-width="1.5" stroke-linecap="round" stroke-linejoin="round"/>
<path d="M10 23.3346V16.668" stroke="#CF2F2F" stroke-width="1.5" stroke-linecap="round" stroke-linejoin="round"/>
<path d="M13.334 34.9987H6.66732C4.82565 34.9987 3.33398 33.507 3.33398 31.6654C3.33398 29.8237 4.82565 28.332 6.66732 28.332H13.334C15.1756 28.332 16.6673 29.8237 16.6673 31.6654C16.6673 33.507 15.1756 34.9987 13.334 34.9987Z" stroke="#CF2F2F" stroke-width="1.5" stroke-linecap="round" stroke-linejoin="round"/>
<path d="M3.3457 31.3887L3.73904 26.4037C3.87404 24.6687 5.32237 23.332 7.0607 23.332H12.939C14.679 23.332 16.1257 24.6687 16.2624 26.4037L16.6557 31.3887" stroke="#CF2F2F" stroke-width="1.5" stroke-linecap="round" stroke-linejoin="round"/>
<path d="M33.334 16.6667H26.6673C24.8257 16.6667 23.334 15.175 23.334 13.3333C23.334 11.4917 24.8257 10 26.6673 10H33.334C35.1757 10 36.6673 11.4917 36.6673 13.3333C36.6673 15.175 35.1757 16.6667 33.334 16.6667Z" stroke="#CF2F2F" stroke-width="1.5" stroke-linecap="round" stroke-linejoin="round"/>
<path d="M23.3457 13.0567L23.739 8.07167C23.874 6.33667 25.3224 5 27.0607 5H32.939C34.679 5 36.1257 6.33667 36.2624 8.07167L36.6557 13.0567" stroke="#CF2F2F" stroke-width="1.5" stroke-linecap="round" stroke-linejoin="round"/>
</g>
<defs>
<clipPath id="clip0_5478_16382">
<rect width="40" height="40" fill="white"/>
</clipPath>
</defs>
</svg>
