<svg width="70" height="70" viewBox="0 0 70 70" fill="none" xmlns="http://www.w3.org/2000/svg">
<g filter="url(#filter0_dd_5494_5437)">
<path d="M11.2587 25.8924C11.3528 25.647 11.4439 25.4002 11.5349 25.1534C11.7231 24.6436 11.9113 24.1337 12.1261 23.6357C13.9237 19.481 17.2609 17.2615 21.485 16.2338C24.1673 15.5778 26.8258 15.6806 29.3954 16.8133C29.5236 16.8549 29.6559 16.882 29.79 16.8942C29.8823 16.9555 29.9766 17.0147 30.0712 17.0742C30.2702 17.1993 30.4708 17.3254 30.6574 17.4736C31.6631 18.2919 32.6562 19.1228 33.647 19.9519L33.6932 19.9905L33.6629 38.6451C33.5903 39.0905 33.5214 39.5366 33.4525 39.9828C33.3154 40.8708 33.1783 41.759 33.0123 42.6424C32.3098 46.5456 31.2776 50.3439 29.1764 53.7486C27.5913 56.3092 25.5334 58.2553 22.4174 58.743C21.9425 58.8173 21.6975 58.743 21.4828 58.2641C19.9049 54.7341 18.3182 51.2088 16.7313 47.6834C15.4833 44.9107 14.2352 42.1378 12.9913 39.3624C11.7231 36.5573 11.0361 33.5207 10.9725 30.4385C10.9485 29.3951 11.0445 28.3475 11.1405 27.3C11.1835 26.8307 11.2265 26.3613 11.2587 25.8924Z" fill="#434396"/>
<path d="M11.2587 25.8924C11.3528 25.647 11.4439 25.4002 11.5349 25.1534C11.7231 24.6436 11.9113 24.1337 12.1261 23.6357C13.9237 19.481 17.2609 17.2615 21.485 16.2338C24.1673 15.5778 26.8258 15.6806 29.3954 16.8133C29.5236 16.8549 29.6559 16.882 29.79 16.8942C29.8823 16.9555 29.9766 17.0147 30.0712 17.0742C30.2702 17.1993 30.4708 17.3254 30.6574 17.4736C31.6631 18.2919 32.6562 19.1228 33.647 19.9519L33.6932 19.9905L33.6629 38.6451C33.5903 39.0905 33.5214 39.5366 33.4525 39.9828C33.3154 40.8708 33.1783 41.759 33.0123 42.6424C32.3098 46.5456 31.2776 50.3439 29.1764 53.7486C27.5913 56.3092 25.5334 58.2553 22.4174 58.743C21.9425 58.8173 21.6975 58.743 21.4828 58.2641C19.9049 54.7341 18.3182 51.2088 16.7313 47.6834C15.4833 44.9107 14.2352 42.1378 12.9913 39.3624C11.7231 36.5573 11.0361 33.5207 10.9725 30.4385C10.9485 29.3951 11.0445 28.3475 11.1405 27.3C11.1835 26.8307 11.2265 26.3613 11.2587 25.8924Z" stroke="#1C1C20"/>
<path d="M42.7788 16.0809C47.352 15.3221 51.4113 16.4833 54.922 19.4965C56.854 21.1562 57.9448 23.3648 58.5476 25.7789C62.0171 26.448 64.8122 27.9896 66.226 31.3899C67.2299 33.7952 67.1757 36.3231 66.5274 38.7831C66.0482 40.6517 65.3947 42.4703 64.5758 44.2148C62.7916 47.9438 60.945 51.6495 59.099 55.3541C58.347 56.8632 57.5951 58.3722 56.8475 59.8824C56.7672 60.0445 56.6917 60.2083 56.6075 60.3913C56.5554 60.5045 56.4999 60.625 56.4377 60.7571H60.085C61.1519 60.7571 61.592 61.2185 61.6029 62.3096V64.2777C61.6029 65.5897 61.2061 65.9986 59.9267 65.9986H41.0939C39.2242 65.9986 37.3555 65.9893 35.4864 65.9801C34.7847 65.9766 34.0828 65.9731 33.3809 65.9701C34.8944 65.7661 36.4073 65.5612 37.9194 65.3557C41.9548 64.8046 45.9425 63.9978 49.7633 62.5655C50.6067 62.2495 51.4247 61.8628 52.2424 61.4763C52.6187 61.2984 52.995 61.1205 53.3737 60.9495L53.2935 60.7308H36.2714V58.472C36.4897 58.4123 36.7122 58.3617 36.9347 58.311C37.4213 58.2002 37.9081 58.0894 38.3531 57.8838C41.777 56.3072 44.2447 53.6657 46.0011 50.39C46.9066 48.7032 47.6917 46.9496 48.4769 45.1962C48.8368 44.3924 49.1967 43.5886 49.5681 42.7913C51.2183 39.2663 52.734 35.7195 53.0615 31.7463C53.3477 28.2476 52.9314 24.9392 51.0882 21.9347C49.3535 19.1226 46.7709 17.4257 43.6483 16.5095C43.346 16.394 43.0549 16.2505 42.7788 16.0809Z" fill="#39398C"/>
<path d="M42.7788 16.0809C47.352 15.3221 51.4113 16.4833 54.922 19.4965C56.854 21.1562 57.9448 23.3648 58.5476 25.7789C62.0171 26.448 64.8122 27.9896 66.226 31.3899C67.2299 33.7952 67.1757 36.3231 66.5274 38.7831C66.0482 40.6517 65.3947 42.4703 64.5758 44.2148C62.7916 47.9438 60.945 51.6495 59.099 55.3541C58.347 56.8632 57.5951 58.3722 56.8475 59.8824C56.7672 60.0445 56.6917 60.2083 56.6075 60.3913C56.5554 60.5045 56.4999 60.625 56.4377 60.7571H60.085C61.1519 60.7571 61.592 61.2185 61.6029 62.3096V64.2777C61.6029 65.5897 61.2061 65.9986 59.9267 65.9986H41.0939C39.2242 65.9986 37.3555 65.9893 35.4864 65.9801C34.7847 65.9766 34.0828 65.9731 33.3809 65.9701C34.8944 65.7661 36.4073 65.5612 37.9194 65.3557C41.9548 64.8046 45.9425 63.9978 49.7633 62.5655C50.6067 62.2495 51.4247 61.8628 52.2424 61.4763C52.6187 61.2984 52.995 61.1205 53.3737 60.9495L53.2935 60.7308H36.2714V58.472C36.4897 58.4123 36.7122 58.3617 36.9347 58.311C37.4213 58.2002 37.9081 58.0894 38.3531 57.8838C41.777 56.3072 44.2447 53.6657 46.0011 50.39C46.9066 48.7032 47.6917 46.9496 48.4769 45.1962C48.8368 44.3924 49.1967 43.5886 49.5681 42.7913C51.2183 39.2663 52.734 35.7195 53.0615 31.7463C53.3477 28.2476 52.9314 24.9392 51.0882 21.9347C49.3535 19.1226 46.7709 17.4257 43.6483 16.5095C43.346 16.394 43.0549 16.2505 42.7788 16.0809Z" stroke="#1C1C20"/>
<path d="M42.7791 16.0781C43.0542 16.2506 43.3446 16.3971 43.6465 16.5155C46.769 17.4339 49.3538 19.1307 51.0885 21.9428C52.9317 24.9473 53.348 28.2623 53.0618 31.7545C52.7344 35.7277 51.2186 39.2745 49.5685 42.7994C49.1843 43.621 48.8133 44.4495 48.4424 45.2777C47.6681 47.0067 46.8942 48.7349 46.0014 50.3982C44.245 53.6782 41.7773 56.3153 38.3534 57.8919C37.9069 58.0976 37.4205 58.2084 36.9343 58.3192C36.7121 58.3699 36.49 58.4205 36.2717 58.4802V23.8299C36.2717 23.0157 36.2655 22.2005 36.2594 21.3856C36.2559 20.9203 36.2524 20.4551 36.25 19.9901C36.6605 19.5234 37.1017 19.0851 37.5706 18.6781C38.1579 18.2281 38.7734 17.8164 39.3895 17.4043C39.6446 17.2336 39.8998 17.0629 40.1532 16.8894L42.7791 16.0781Z" fill="#434396"/>
<path d="M42.7791 16.0781C43.0542 16.2506 43.3446 16.3971 43.6465 16.5155C46.769 17.4339 49.3538 19.1307 51.0885 21.9428C52.9317 24.9473 53.348 28.2623 53.0618 31.7545C52.7344 35.7277 51.2186 39.2745 49.5685 42.7994C49.1843 43.621 48.8133 44.4495 48.4424 45.2777C47.6681 47.0067 46.8942 48.7349 46.0014 50.3982C44.245 53.6782 41.7773 56.3153 38.3534 57.8919C37.9069 58.0976 37.4205 58.2084 36.9343 58.3192C36.7121 58.3699 36.49 58.4205 36.2717 58.4802V23.8299C36.2717 23.0157 36.2655 22.2005 36.2594 21.3856C36.2559 20.9203 36.2524 20.4551 36.25 19.9901C36.6605 19.5234 37.1017 19.0851 37.5706 18.6781C38.1579 18.2281 38.7734 17.8164 39.3895 17.4043C39.6446 17.2336 39.8998 17.0629 40.1532 16.8894L42.7791 16.0781Z" stroke="#1C1C20"/>
<path d="M36.2651 60.7309H53.2872L53.3674 60.9496C52.9896 61.1202 52.6134 61.2977 52.2371 61.4752C51.4172 61.8622 50.5968 62.2493 49.757 62.5656C45.9297 63.9978 41.9507 64.8047 37.9131 65.3558C36.401 65.5642 34.8881 65.7691 33.3746 65.9702C32.7945 65.9702 32.2139 65.9773 31.6333 65.9844C31.0527 65.9916 30.4721 65.9987 29.8921 65.9987H10.103C8.75645 65.9987 8.34879 65.5941 8.34445 64.2624C8.34445 64.0263 8.34253 63.7901 8.3406 63.5539C8.33674 63.0816 8.33289 62.6093 8.34445 62.137C8.37047 61.2623 8.85186 60.779 9.7214 60.7637C10.5216 60.7508 11.3228 60.7549 12.1622 60.7592C12.5965 60.7614 13.041 60.7637 13.501 60.7637C13.4403 60.6319 13.3867 60.5115 13.3364 60.3988C13.2592 60.2254 13.1899 60.0698 13.115 59.9175C10.4753 54.5791 7.83271 49.2377 5.18723 43.8934C3.76257 41.0026 2.85617 37.9632 3.01881 34.7094C3.18577 31.1254 4.81859 28.4401 8.07123 26.8482C8.21912 26.789 8.37235 26.7443 8.52877 26.7148C8.51127 26.9265 8.49152 27.1367 8.47184 27.346C8.43054 27.7853 8.38957 28.2211 8.37047 28.661C8.2014 31.9599 8.75442 35.256 9.99028 38.3152C10.7652 40.2234 11.6118 42.101 12.4587 43.979C12.6735 44.4554 12.8883 44.9319 13.102 45.4088C15.3181 50.342 17.5487 55.27 19.7937 60.193C19.8824 60.3421 20.0037 60.4687 20.1484 60.563C20.2931 60.6574 20.4574 60.7171 20.6286 60.7375C24.4369 60.7624 28.2468 60.7521 32.0556 60.7418C32.5993 60.7403 33.1431 60.7389 33.6868 60.7375L36.2651 60.7309Z" fill="#434396"/>
<path d="M36.2651 60.7309H53.2872L53.3674 60.9496C52.9896 61.1202 52.6134 61.2977 52.2371 61.4752C51.4172 61.8622 50.5968 62.2493 49.757 62.5656C45.9297 63.9978 41.9507 64.8047 37.9131 65.3558C36.401 65.5642 34.8881 65.7691 33.3746 65.9702C32.7945 65.9702 32.2139 65.9773 31.6333 65.9844C31.0527 65.9916 30.4721 65.9987 29.8921 65.9987H10.103C8.75645 65.9987 8.34879 65.5941 8.34445 64.2624C8.34445 64.0263 8.34253 63.7901 8.3406 63.5539C8.33674 63.0816 8.33289 62.6093 8.34445 62.137C8.37047 61.2623 8.85186 60.779 9.7214 60.7637C10.5216 60.7508 11.3228 60.7549 12.1622 60.7592C12.5965 60.7614 13.041 60.7637 13.501 60.7637C13.4403 60.6319 13.3867 60.5115 13.3364 60.3988C13.2592 60.2254 13.1899 60.0698 13.115 59.9175C10.4753 54.5791 7.83271 49.2377 5.18723 43.8934C3.76257 41.0026 2.85617 37.9632 3.01881 34.7094C3.18577 31.1254 4.81859 28.4401 8.07123 26.8482C8.21912 26.789 8.37235 26.7443 8.52877 26.7148C8.51127 26.9265 8.49152 27.1367 8.47184 27.346C8.43054 27.7853 8.38957 28.2211 8.37047 28.661C8.2014 31.9599 8.75442 35.256 9.99028 38.3152C10.7652 40.2234 11.6118 42.101 12.4587 43.979C12.6735 44.4554 12.8883 44.9319 13.102 45.4088C15.3181 50.342 17.5487 55.27 19.7937 60.193C19.8824 60.3421 20.0037 60.4687 20.1484 60.563C20.2931 60.6574 20.4574 60.7171 20.6286 60.7375C24.4369 60.7624 28.2468 60.7521 32.0556 60.7418C32.5993 60.7403 33.1431 60.7389 33.6868 60.7375L36.2651 60.7309Z" stroke="#1C1C20"/>
<path d="M33.6763 60.7328C32.2257 60.7328 30.7749 60.7355 29.324 60.7382C26.4219 60.7435 23.5195 60.7488 20.6181 60.7328C20.4469 60.7124 20.2827 60.6528 20.1379 60.5584C19.9932 60.464 19.8719 60.3374 19.7832 60.1883C17.5237 55.2727 15.2932 50.3461 13.0915 45.4085C12.8778 44.9315 12.663 44.4551 12.4482 43.9787C11.6013 42.1007 10.7547 40.2231 9.9798 38.3149C8.74763 35.2548 8.19832 31.9588 8.37083 28.6607C8.39025 28.2087 8.43232 27.763 8.47433 27.3178C8.4933 27.1168 8.51226 26.9159 8.52913 26.7145L11.27 25.8945C11.2374 26.3691 11.1938 26.8441 11.1501 27.3192C11.0544 28.361 10.9586 29.4029 10.9794 30.4407C11.0477 33.5223 11.7391 36.5574 13.0113 39.3601C14.3706 42.4002 15.7386 45.4372 17.1066 48.4744C18.5754 51.7354 20.0444 54.9966 21.5028 58.2619C21.7196 58.7407 21.9625 58.8151 22.4374 58.7407C25.5534 58.2531 27.6113 56.307 29.1964 53.7463C31.3019 50.3417 32.3297 46.5434 33.0323 42.6402C33.1924 41.7573 33.3314 40.8697 33.4703 39.9823C33.5403 39.5356 33.6102 39.0889 33.6828 38.6429L33.6763 60.7328Z" fill="#39398C"/>
<path d="M33.6763 60.7328C32.2257 60.7328 30.7749 60.7355 29.324 60.7382C26.4219 60.7435 23.5195 60.7488 20.6181 60.7328C20.4469 60.7124 20.2827 60.6528 20.1379 60.5584C19.9932 60.464 19.8719 60.3374 19.7832 60.1883C17.5237 55.2727 15.2932 50.3461 13.0915 45.4085C12.8778 44.9315 12.663 44.4551 12.4482 43.9787C11.6013 42.1007 10.7547 40.2231 9.9798 38.3149C8.74763 35.2548 8.19832 31.9588 8.37083 28.6607C8.39025 28.2087 8.43232 27.763 8.47433 27.3178C8.4933 27.1168 8.51226 26.9159 8.52913 26.7145L11.27 25.8945C11.2374 26.3691 11.1938 26.8441 11.1501 27.3192C11.0544 28.361 10.9586 29.4029 10.9794 30.4407C11.0477 33.5223 11.7391 36.5574 13.0113 39.3601C14.3706 42.4002 15.7386 45.4372 17.1066 48.4744C18.5754 51.7354 20.0444 54.9966 21.5028 58.2619C21.7196 58.7407 21.9625 58.8151 22.4374 58.7407C25.5534 58.2531 27.6113 56.307 29.1964 53.7463C31.3019 50.3417 32.3297 46.5434 33.0323 42.6402C33.1924 41.7573 33.3314 40.8697 33.4703 39.9823C33.5403 39.5356 33.6102 39.0889 33.6828 38.6429L33.6763 60.7328Z" stroke="#1C1C20"/>
<path d="M31.2291 15.8561L33.0332 12.4864C32.5349 12.3902 32.0458 12.2948 31.5636 12.2008C30.0943 11.9142 28.6883 11.64 27.2761 11.3931C27.0428 11.3506 26.8011 11.3527 26.5593 11.3548C26.3403 11.3567 26.1211 11.3586 25.9078 11.3275C25.6301 11.2957 25.3753 11.157 25.1966 10.9404C25.1012 10.7786 25.1966 10.3959 25.3418 10.2123C26.6971 8.44104 28.1261 7.12028 30.9797 8.23331C31.0049 8.02341 31.0185 7.80904 31.0321 7.59473C31.0632 7.10574 31.0943 6.61701 31.2616 6.18219C31.5023 5.5568 31.9902 4.9489 32.4456 4.40442C33.008 3.74835 33.6083 3.12625 34.2432 2.54136C34.5237 2.32969 34.8271 2.15071 35.1475 2.00781C35.3039 2.27435 35.4545 2.54523 35.6051 2.81614C35.9326 3.40536 36.2603 3.99474 36.648 4.53999C36.7365 4.66312 36.8264 4.78563 36.9162 4.90807C37.7834 6.09034 38.6458 7.26621 38.2548 8.92867C38.5083 8.86934 38.7544 8.80974 38.9959 8.75126C39.4486 8.64163 39.8851 8.53592 40.3235 8.44323C41.0001 8.31519 41.6994 8.39518 42.3304 8.6728C42.9614 8.95042 43.4952 9.41287 43.8624 10.0001C44.2332 10.5971 44.0662 10.9076 43.4287 11.0432C43.1373 11.1078 42.8402 11.1586 42.5424 11.2096C42.3968 11.2344 42.2511 11.2594 42.1059 11.2859C41.826 11.3022 41.546 11.3191 41.266 11.336C40.6069 11.3757 39.9475 11.4155 39.287 11.4477C39.1136 11.4563 38.9419 11.4767 38.7705 11.4971C38.2455 11.5594 37.7238 11.6214 37.1663 11.3428C36.5461 11.0301 35.9736 11.6708 36.1254 12.4121C36.1741 12.6521 36.2586 12.8842 36.3433 13.1164C36.3982 13.2671 36.4532 13.4179 36.4984 13.571C37.0557 15.4341 36.7694 17.1375 35.5573 18.7381L31.2291 15.8561Z" fill="#34CCA9"/>
<path d="M31.2291 15.8561L33.0332 12.4864C32.5349 12.3902 32.0458 12.2948 31.5636 12.2008C30.0943 11.9142 28.6883 11.64 27.2761 11.3931C27.0428 11.3506 26.8011 11.3527 26.5593 11.3548C26.3403 11.3567 26.1211 11.3586 25.9078 11.3275C25.6301 11.2957 25.3753 11.157 25.1966 10.9404C25.1012 10.7786 25.1966 10.3959 25.3418 10.2123C26.6971 8.44104 28.1261 7.12028 30.9797 8.23331C31.0049 8.02341 31.0185 7.80904 31.0321 7.59473C31.0632 7.10574 31.0943 6.61701 31.2616 6.18219C31.5023 5.5568 31.9902 4.9489 32.4456 4.40442C33.008 3.74835 33.6083 3.12625 34.2432 2.54136C34.5237 2.32969 34.8271 2.15071 35.1475 2.00781C35.3039 2.27435 35.4545 2.54523 35.6051 2.81614C35.9326 3.40536 36.2603 3.99474 36.648 4.53999C36.7365 4.66312 36.8264 4.78563 36.9162 4.90807C37.7834 6.09034 38.6458 7.26621 38.2548 8.92867C38.5083 8.86934 38.7544 8.80974 38.9959 8.75126C39.4486 8.64163 39.8851 8.53592 40.3235 8.44323C41.0001 8.31519 41.6994 8.39518 42.3304 8.6728C42.9614 8.95042 43.4952 9.41287 43.8624 10.0001C44.2332 10.5971 44.0662 10.9076 43.4287 11.0432C43.1373 11.1078 42.8402 11.1586 42.5424 11.2096C42.3968 11.2344 42.2511 11.2594 42.1059 11.2859C41.826 11.3022 41.546 11.3191 41.266 11.336C40.6069 11.3757 39.9475 11.4155 39.287 11.4477C39.1136 11.4563 38.9419 11.4767 38.7705 11.4971C38.2455 11.5594 37.7238 11.6214 37.1663 11.3428C36.5461 11.0301 35.9736 11.6708 36.1254 12.4121C36.1741 12.6521 36.2586 12.8842 36.3433 13.1164C36.3982 13.2671 36.4532 13.4179 36.4984 13.571C37.0557 15.4341 36.7694 17.1375 35.5573 18.7381L31.2291 15.8561Z" stroke="#1C1C20"/>
<path d="M31.2304 15.8575L35.5673 18.7461C36.7794 17.1454 37.0657 15.442 36.5084 13.5789C36.4632 13.4258 36.4082 13.275 36.3533 13.1244C36.2686 12.8921 36.1841 12.6601 36.1354 12.42C35.9836 11.6787 36.5561 11.038 37.1762 11.3507C37.7337 11.6293 38.2555 11.5674 38.7805 11.505C38.9519 11.4847 39.1236 11.4643 39.297 11.4557C39.9503 11.4237 40.6037 11.3843 41.2578 11.3449C41.5437 11.3277 41.8297 11.3105 42.1159 11.2938V11.4469L37.0331 12.5031L37.0335 12.504C37.6839 14.135 38.3822 15.8861 40.1535 16.8961C39.9085 17.0635 39.6621 17.2283 39.4159 17.3929C38.7906 17.8111 38.1668 18.2283 37.5709 18.6848C37.102 19.0918 36.6608 19.5301 36.2503 19.9969L34.9731 21.3745L33.6981 19.9969C33.3812 19.734 33.0649 19.4709 32.749 19.208C32.0531 18.6291 31.3587 18.0514 30.6623 17.48C30.4669 17.3198 30.2506 17.1854 30.0329 17.0502C29.9534 17.0008 29.8738 16.9514 29.7949 16.9005L31.2304 15.8575Z" fill="#34CCA9"/>
<path d="M31.2304 15.8575L35.5673 18.7461C36.7794 17.1454 37.0657 15.442 36.5084 13.5789C36.4632 13.4258 36.4082 13.275 36.3533 13.1244C36.2686 12.8921 36.1841 12.6601 36.1354 12.42C35.9836 11.6787 36.5561 11.038 37.1762 11.3507C37.7337 11.6293 38.2555 11.5674 38.7805 11.505C38.9519 11.4847 39.1236 11.4643 39.297 11.4557C39.9503 11.4237 40.6037 11.3843 41.2578 11.3449C41.5437 11.3277 41.8297 11.3105 42.1159 11.2938V11.4469L37.0331 12.5031L37.0335 12.504C37.6839 14.135 38.3822 15.8861 40.1535 16.8961C39.9085 17.0635 39.6621 17.2283 39.4159 17.3929C38.7906 17.8111 38.1668 18.2283 37.5709 18.6848C37.102 19.0918 36.6608 19.5301 36.2503 19.9969L34.9731 21.3745L33.6981 19.9969C33.3812 19.734 33.0649 19.4709 32.749 19.208C32.0531 18.6291 31.3587 18.0514 30.6623 17.48C30.4669 17.3198 30.2506 17.1854 30.0329 17.0502C29.9534 17.0008 29.8738 16.9514 29.7949 16.9005L31.2304 15.8575Z" stroke="#1C1C20"/>
<path d="M42.1128 11.4465V11.2934C42.2678 11.2645 42.4251 11.2375 42.5832 11.2104C42.8673 11.1617 43.1541 11.1125 43.4355 11.0507C44.0665 10.9151 44.2335 10.6134 43.8692 10.0076C43.504 9.41757 42.9712 8.95201 42.34 8.67159C41.7088 8.39117 41.0085 8.30888 40.3303 8.43541C39.8919 8.52811 39.4554 8.63382 39.0027 8.74345C38.7612 8.80193 38.5151 8.86153 38.2617 8.92086C38.6506 7.27564 37.8083 6.11927 36.9501 4.94084C36.8513 4.80517 36.7522 4.66921 36.6548 4.53218C36.2671 3.98693 35.9395 3.39755 35.6119 2.80833C35.4613 2.53742 35.3107 2.26654 35.1543 2C35.2012 2.04255 35.2481 2.08449 35.2947 2.12622C35.4638 2.27746 35.6297 2.42587 35.781 2.5904C35.9176 2.73853 36.0442 2.9007 36.1707 3.06265C36.4177 3.37885 36.6639 3.69418 36.9823 3.90241C38.524 4.90173 39.0444 6.33401 38.923 8.03744C39.1945 8.0169 39.4639 7.98373 39.7308 7.95086C40.3166 7.87871 40.8906 7.80802 41.4492 7.87562C42.9866 8.06368 43.9473 9.16358 44.7387 10.4034C45.0206 10.8408 44.8406 11.2453 44.3441 11.3153C43.8321 11.3849 43.3118 11.4022 42.7961 11.4192C42.567 11.4268 42.3389 11.4344 42.1128 11.4465Z" fill="#34CCA9"/>
<path d="M42.1128 11.4465V11.2934C42.2678 11.2645 42.4251 11.2375 42.5832 11.2104C42.8673 11.1617 43.1541 11.1125 43.4355 11.0507C44.0665 10.9151 44.2335 10.6134 43.8692 10.0076C43.504 9.41757 42.9712 8.95201 42.34 8.67159C41.7088 8.39117 41.0085 8.30888 40.3303 8.43541C39.8919 8.52811 39.4554 8.63382 39.0027 8.74345C38.7612 8.80193 38.5151 8.86153 38.2617 8.92086C38.6506 7.27564 37.8083 6.11927 36.9501 4.94084C36.8513 4.80517 36.7522 4.66921 36.6548 4.53218C36.2671 3.98693 35.9395 3.39755 35.6119 2.80833C35.4613 2.53742 35.3107 2.26654 35.1543 2C35.2012 2.04255 35.2481 2.08449 35.2947 2.12622C35.4638 2.27746 35.6297 2.42587 35.781 2.5904C35.9176 2.73853 36.0442 2.9007 36.1707 3.06265C36.4177 3.37885 36.6639 3.69418 36.9823 3.90241C38.524 4.90173 39.0444 6.33401 38.923 8.03744C39.1945 8.0169 39.4639 7.98373 39.7308 7.95086C40.3166 7.87871 40.8906 7.80802 41.4492 7.87562C42.9866 8.06368 43.9473 9.16358 44.7387 10.4034C45.0206 10.8408 44.8406 11.2453 44.3441 11.3153C43.8321 11.3849 43.3118 11.4022 42.7961 11.4192C42.567 11.4268 42.3389 11.4344 42.1128 11.4465Z" stroke="#1C1C20"/>
<path d="M33.6966 19.9922L34.9716 21.3698L36.2488 19.9922C36.2488 20.6318 36.2542 21.2719 36.2597 21.9121C36.2651 22.5522 36.2705 23.1924 36.2705 23.832V58.4822V60.7411H33.6771L33.6641 38.6468L33.6966 19.9922Z" fill="#39398C"/>
<path d="M33.6966 19.9922L34.9716 21.3698L36.2488 19.9922C36.2488 20.6318 36.2542 21.2719 36.2597 21.9121C36.2651 22.5522 36.2705 23.1924 36.2705 23.832V58.4822V60.7411H33.6771L33.6641 38.6468L33.6966 19.9922Z" stroke="#1C1C20"/>
</g>
<defs>
<filter id="filter0_dd_5494_5437" x="0" y="0" width="70" height="70" filterUnits="userSpaceOnUse" color-interpolation-filters="sRGB">
<feFlood flood-opacity="0" result="BackgroundImageFix"/>
<feColorMatrix in="SourceAlpha" type="matrix" values="0 0 0 0 0 0 0 0 0 0 0 0 0 0 0 0 0 0 127 0" result="hardAlpha"/>
<feMorphology radius="1" operator="erode" in="SourceAlpha" result="effect1_dropShadow_5494_5437"/>
<feOffset dy="1"/>
<feGaussianBlur stdDeviation="1"/>
<feComposite in2="hardAlpha" operator="out"/>
<feColorMatrix type="matrix" values="0 0 0 0 0.0627451 0 0 0 0 0.0941176 0 0 0 0 0.156863 0 0 0 0.1 0"/>
<feBlend mode="normal" in2="BackgroundImageFix" result="effect1_dropShadow_5494_5437"/>
<feColorMatrix in="SourceAlpha" type="matrix" values="0 0 0 0 0 0 0 0 0 0 0 0 0 0 0 0 0 0 127 0" result="hardAlpha"/>
<feOffset dy="1"/>
<feGaussianBlur stdDeviation="1.5"/>
<feComposite in2="hardAlpha" operator="out"/>
<feColorMatrix type="matrix" values="0 0 0 0 0.0627451 0 0 0 0 0.0941176 0 0 0 0 0.156863 0 0 0 0.1 0"/>
<feBlend mode="normal" in2="effect1_dropShadow_5494_5437" result="effect2_dropShadow_5494_5437"/>
<feBlend mode="normal" in="SourceGraphic" in2="effect2_dropShadow_5494_5437" result="shape"/>
</filter>
</defs>
</svg>
