<svg width="70" height="70" viewBox="0 0 70 70" fill="none" xmlns="http://www.w3.org/2000/svg">
<g filter="url(#filter0_dd_5494_5393)">
<path d="M34.8773 66.0004C33.5619 65.5696 32.4936 64.8317 32.2065 63.3991C31.8592 61.6477 31.6255 59.8746 31.3301 58.0346C34.6387 57.3776 37.859 56.3354 40.9252 54.9291C44.0168 53.4922 46.959 51.7535 49.709 49.7383C49.6389 50.6349 49.5788 51.3929 49.5187 52.1509C49.4352 53.2078 49.3601 54.2663 49.2666 55.3232C49.2182 56.0643 48.9967 56.7838 48.6198 57.4238C48.2429 58.0638 47.7212 58.6064 47.0965 59.008C43.8804 61.1585 40.6531 63.2917 37.4146 65.4077C37.024 65.6631 36.56 65.8051 36.1293 66.0004H34.8773Z" fill="#434396"/>
<path d="M3.00586 32.8753C3.41984 32.1123 3.78375 31.3192 4.25449 30.5946C6.06901 27.803 7.92693 25.0465 9.74813 22.2465C10.7497 20.7104 12.0851 19.8189 13.9381 19.692C15.6591 19.5751 17.3785 19.4282 19.2648 19.2812C17.2416 22.1046 15.5022 24.958 14.1033 28.0117C12.686 31.0884 11.6382 34.3221 10.9817 37.6454L7.14237 37.0594C7.04102 37.0361 6.93849 37.0182 6.83522 37.006C4.91386 36.8958 3.57342 36.0209 3.00753 34.1175L3.00586 32.8753Z" fill="#434396"/>
<path d="M3.00753 63.6247C3.40816 63.1238 3.76873 62.5995 4.21443 62.152C7.83457 58.5067 11.4692 54.8753 15.1182 51.2578C15.4852 50.9002 15.942 50.6487 16.4403 50.5298C17.1898 50.3628 17.8325 50.7101 18.2365 51.378C18.4378 51.6857 18.5392 52.0481 18.527 52.4156C18.5147 52.7832 18.3894 53.138 18.168 53.4316C18.0067 53.6482 17.8256 53.8494 17.6272 54.0327C14.0549 57.609 10.4793 61.1814 6.90032 64.75C6.43793 65.2108 5.89874 65.5848 5.38293 65.9989H4.38136C3.77607 65.7161 3.28925 65.2298 3.00586 64.6248L3.00753 63.6247Z" fill="#34CCA9"/>
<path d="M3.00668 52.6284C3.35055 52.1275 3.62932 51.5481 4.04999 51.114C5.86284 49.2474 7.72243 47.4258 9.55865 45.5792C10.0962 45.0383 10.7105 44.7444 11.47 44.9314C12.8572 45.2653 13.4231 46.9533 12.4248 47.9901C10.3749 50.1172 8.28331 52.2071 6.14996 54.2596C5.19011 55.1862 3.66772 54.7605 3.16693 53.5283C3.11184 53.3947 3.06009 53.2611 3 53.1276L3.00668 52.6284Z" fill="#34CCA9"/>
<path d="M15.8795 65.9995C15.766 65.9528 15.6541 65.9027 15.5456 65.8593C14.2319 65.3584 13.8146 63.809 14.7894 62.8089C16.8243 60.7202 18.8926 58.6665 20.9658 56.6213C21.3123 56.2807 21.7787 56.0898 22.2645 56.0898C22.7504 56.0898 23.2167 56.2807 23.5632 56.6213C23.7397 56.7854 23.8816 56.9832 23.9808 57.2029C24.0799 57.4226 24.1343 57.6599 24.1406 57.9008C24.147 58.1418 24.1053 58.3816 24.0179 58.6063C23.9305 58.8309 23.7992 59.0359 23.6317 59.2092C21.5796 61.3096 19.5035 63.3855 17.4036 65.4369C17.1365 65.699 16.7242 65.8125 16.3786 65.9945L15.8795 65.9995Z" fill="#34CCA9"/>
<path d="M18.4102 27.7372C20.2312 24.2517 22.4738 21.0033 25.0873 18.0651C28.5428 14.1582 32.4322 10.7488 36.9193 8.07408C40.9456 5.67984 45.3008 4.13878 49.8646 3.16205C54.0852 2.27226 58.397 1.8911 62.7082 2.02671C63.0203 2.03505 63.3325 2.05509 63.643 2.07846C65.6177 2.23207 66.7929 3.36073 66.9181 5.32421C67.1044 8.61307 66.9697 11.9123 66.5158 15.175C65.8999 19.8867 64.6879 24.4314 62.6915 28.7507C60.2259 34.0818 56.6203 38.5731 52.3953 42.5952C49.1617 45.6971 45.5155 48.3378 41.5599 50.4424C41.4514 50.4992 41.3396 50.5543 41.2628 50.5927L18.4102 27.7372ZM37.4802 22.169C37.4818 24.0235 38.0334 25.8359 39.0652 27.3767C40.097 28.9175 41.5626 30.1176 43.2765 30.8251C44.9904 31.5325 46.8756 31.7156 48.6936 31.3511C50.5115 30.9866 52.1805 30.0909 53.4894 28.7773C54.7982 27.4638 55.6881 25.7914 56.0463 23.9719C56.4046 22.1523 56.2152 20.2674 55.5021 18.5555C54.7889 16.8437 53.5842 15.3819 52.0401 14.3551C50.4961 13.3284 48.6823 12.7828 46.8282 12.7874C45.5969 12.7836 44.377 13.024 43.239 13.4945C42.1011 13.965 41.0677 14.6564 40.1985 15.5288C39.3293 16.4011 38.6415 17.4371 38.1749 18.5768C37.7083 19.7165 37.4722 20.9375 37.4802 22.169Z" fill="#434396"/>
<path d="M16.6671 31.5859L37.4899 52.4095C35.9257 52.892 34.3549 53.4112 32.7674 53.857C31.9094 54.1008 31.0197 54.231 30.145 54.418C29.6154 54.5498 29.0606 54.5402 28.5359 54.3902C28.0113 54.2402 27.5352 53.955 27.1553 53.5632C23.2414 49.6752 19.3397 45.7733 15.4502 41.8575C14.6339 41.036 14.3001 40.0058 14.5972 38.8705C15.1965 36.5831 15.8492 34.3074 16.4852 32.025C16.5357 31.8747 16.5965 31.728 16.6671 31.5859Z" fill="#434396"/>
<path d="M41.2344 22.1268C41.2388 21.0128 41.574 19.9252 42.1975 19.002C42.8211 18.0789 43.7047 17.3619 44.7364 16.942C45.768 16.5221 46.9012 16.4182 47.992 16.6436C49.0827 16.869 50.082 17.4134 50.8628 18.2078C51.6437 19.0022 52.171 20.0108 52.3777 21.1055C52.5845 22.2001 52.4614 23.3316 52.0241 24.3561C51.5868 25.3807 50.855 26.2522 49.9215 26.8601C48.9881 27.4679 47.8952 27.7847 46.7815 27.7701C45.2997 27.7512 43.8854 27.1475 42.8465 26.0906C41.8075 25.0336 41.2281 23.609 41.2344 22.1268Z" fill="#34CCA9"/>
</g>
<defs>
<filter id="filter0_dd_5494_5393" x="0" y="0" width="70" height="70" filterUnits="userSpaceOnUse" color-interpolation-filters="sRGB">
<feFlood flood-opacity="0" result="BackgroundImageFix"/>
<feColorMatrix in="SourceAlpha" type="matrix" values="0 0 0 0 0 0 0 0 0 0 0 0 0 0 0 0 0 0 127 0" result="hardAlpha"/>
<feMorphology radius="1" operator="erode" in="SourceAlpha" result="effect1_dropShadow_5494_5393"/>
<feOffset dy="1"/>
<feGaussianBlur stdDeviation="1"/>
<feComposite in2="hardAlpha" operator="out"/>
<feColorMatrix type="matrix" values="0 0 0 0 0.0627451 0 0 0 0 0.0941176 0 0 0 0 0.156863 0 0 0 0.1 0"/>
<feBlend mode="normal" in2="BackgroundImageFix" result="effect1_dropShadow_5494_5393"/>
<feColorMatrix in="SourceAlpha" type="matrix" values="0 0 0 0 0 0 0 0 0 0 0 0 0 0 0 0 0 0 127 0" result="hardAlpha"/>
<feOffset dy="1"/>
<feGaussianBlur stdDeviation="1.5"/>
<feComposite in2="hardAlpha" operator="out"/>
<feColorMatrix type="matrix" values="0 0 0 0 0.0627451 0 0 0 0 0.0941176 0 0 0 0 0.156863 0 0 0 0.1 0"/>
<feBlend mode="normal" in2="effect1_dropShadow_5494_5393" result="effect2_dropShadow_5494_5393"/>
<feBlend mode="normal" in="SourceGraphic" in2="effect2_dropShadow_5494_5393" result="shape"/>
</filter>
</defs>
</svg>
