<svg width="88" height="16" viewBox="0 0 88 16" fill="none" xmlns="http://www.w3.org/2000/svg">
<path d="M15.9654 0H0V16H15.9654V0Z" fill="#2DB394"/>
<path d="M7.81623 10.668L10.3108 10.0013L11.3087 13.168L7.81623 10.668ZM13.4706 6.66797H9.14667L7.81623 2.66797L6.48578 6.66797H2.32812L5.82055 9.16796L4.4901 13.168L7.98253 10.668L10.1445 9.16796L13.4706 6.66797Z" fill="white"/>
<path d="M33.9732 0H18.0078V16H33.9732V0Z" fill="#2DB394"/>
<path d="M25.824 10.668L28.3186 10.0013L29.3165 13.168L25.824 10.668ZM31.4784 6.66797H27.1545L25.824 2.66797L24.4936 6.66797H20.3359L23.8284 9.16796L22.4979 13.168L25.9903 10.668L28.1523 9.16796L31.4784 6.66797Z" fill="white"/>
<path d="M51.983 0H36.0176V16H51.983V0Z" fill="#2DB394"/>
<path d="M43.8338 10.668L46.3284 10.0013L47.3262 13.168L43.8338 10.668ZM49.4882 6.66797H45.1643L43.8338 2.66797L42.5034 6.66797H38.3457L41.8381 9.16796L40.5077 13.168L44.0001 10.668L46.1621 9.16796L49.4882 6.66797Z" fill="white"/>
<path d="M69.9908 0H54.0254V16H69.9908V0Z" fill="#2DB394"/>
<path d="M61.8416 10.668L64.3362 10.0013L65.334 13.168L61.8416 10.668ZM67.496 6.66797H63.1721L61.8416 2.66797L60.5112 6.66797H56.3535L59.8459 9.16796L58.5155 13.168L62.0079 10.668L64.1699 9.16796L67.496 6.66797Z" fill="white"/>
<path d="M88.0005 0H72.0352V16H88.0005V0Z" fill="#2DB394"/>
<path d="M79.8514 10.668L82.346 10.0013L83.3438 13.168L79.8514 10.668ZM85.5058 6.66797H81.1818L79.8514 2.66797L78.5209 6.66797H74.3633L77.8557 9.16796L76.5253 13.168L80.0177 10.668L82.1797 9.16796L85.5058 6.66797Z" fill="white"/>
</svg>
