<svg width="322" height="308" viewBox="0 0 322 308" fill="none" xmlns="http://www.w3.org/2000/svg">
<path d="M205.506 0H319.494C320.878 0 322 1.12182 322 2.50566V46.9094C322 48.2933 320.878 49.4151 319.494 49.4151H205.506C204.122 49.4151 203 48.2933 203 46.9094V2.50566C203 1.12182 204.122 0 205.506 0Z" fill="#434396"/>
<path d="M302.938 9.88281C306.056 9.88281 308.586 12.4129 308.586 15.5302C308.586 18.6476 306.056 21.1777 302.938 21.1777C299.821 21.1777 297.291 18.6476 297.291 15.5302C297.291 12.4129 299.821 9.88281 302.938 9.88281ZM304.068 18.354L306.892 15.5302L306.095 14.734L304.068 16.7557L299.782 12.4693L298.985 13.2713L304.068 18.354Z" fill="#34CCA9"/>
<path d="M302.938 27.1797C306.056 27.1797 308.586 29.7097 308.586 32.8271C308.586 35.9445 306.056 38.4745 302.938 38.4745C299.821 38.4745 297.291 35.9445 297.291 32.8271C297.291 29.7097 299.821 27.1797 302.938 27.1797ZM304.068 35.6508L306.892 32.8271L306.095 32.0308L304.068 34.0526L299.782 29.7662L298.985 30.5681L304.068 35.6508Z" fill="#34CCA9"/>
<path d="M253.074 12.1445H291.73V14.2868H253.074V12.1445Z" fill="#34CCA9"/>
<path d="M216.541 17.0117H291.73V19.1539H216.541V17.0117Z" fill="white"/>
<path d="M271.991 29.1953H291.73V31.3376H271.991V29.1953Z" fill="#34CCA9"/>
<path d="M216.541 34.0742H291.73V36.2165H216.541V34.0742Z" fill="white"/>
<path d="M140.266 308.001C71.9301 308.001 16.5326 251.376 16.5326 181.526C16.5326 111.676 71.9301 55.0508 140.266 55.0508C208.603 55.0508 264 111.676 264 181.526C264 251.376 208.603 308.001 140.266 308.001Z" fill="#34CCA9"/>
<path d="M201.971 72.5235C201.971 71.7717 201.971 71.0338 201.862 70.2541C199.56 34.5699 150.728 29.502 137.08 54.7441L175.383 101.33C176.699 104.568 178.741 107.445 181.343 109.73C183.945 112.015 187.035 113.645 190.366 114.487C193.091 115.21 195.929 115.376 198.718 114.975C201.506 114.574 204.189 113.613 206.613 112.148C209.037 110.684 211.154 108.744 212.842 106.441C214.53 104.137 215.756 101.516 216.45 98.7263C217.705 93.2977 216.911 87.5851 214.228 82.7283C211.544 77.8715 207.167 74.2275 201.971 72.5235Z" fill="#FF7977"/>
<path d="M181.908 81.7109L190.285 133.518C191.104 138.087 190.191 142.804 187.733 146.711C185.274 150.617 181.453 153.422 177.046 154.555C174.554 155.168 171.963 155.224 169.449 154.72C166.934 154.216 164.556 153.164 162.476 151.635C160.395 150.106 158.662 148.136 157.394 145.86C156.127 143.584 155.354 141.055 155.129 138.446L150.376 89.633L181.908 81.7109Z" fill="#FDC2AB"/>
<path d="M153.587 122.605L152.743 115.435C152.743 115.435 167.29 116.618 177.043 101.93C177.043 101.93 172.875 116.966 153.587 122.605Z" fill="#1C1C20"/>
<path d="M172.14 43.6625C174.245 44.6171 176.189 45.9044 177.902 47.4773C193.934 62.0684 185.475 92.1278 172.277 106.092C164.976 113.833 153.984 117.76 144.095 114.446C129.629 109.559 124.453 93.1024 126.714 78.1632C128.39 67.025 133.865 56.3462 142.351 49.4822C150.837 42.6183 162.524 39.3325 172.14 43.6625Z" fill="#FDC2AB"/>
<path d="M176.987 96.9459C178.488 98.2716 180.309 99.164 182.26 99.5311C184.211 99.8982 186.223 99.7267 188.088 99.0343C189.918 98.2094 191.522 96.9395 192.761 95.3354C194.001 93.7313 194.837 91.8417 195.198 89.8313C195.866 86.1417 194.789 82.0345 192.093 79.9182C190.654 78.8305 188.861 78.3509 187.085 78.579C185.31 78.8072 183.688 79.7255 182.558 81.1434L176.987 96.9459Z" fill="#FDC2AB"/>
<path d="M184.235 91.066C186.333 91.1913 188.117 89.9383 188.199 88.2815C188.185 87.6215 187.969 86.9826 187.58 86.4554C187.191 85.9282 186.65 85.5393 186.033 85.3438" stroke="#D67374" stroke-width="1.63069" stroke-miterlimit="10" stroke-linecap="round"/>
<path d="M139.652 82.8512C139.577 82.1874 139.403 81.5394 139.135 80.9299C138.896 80.3329 138.605 79.7596 138.263 79.2174L137.609 80.6096C138.657 80.393 139.611 79.8422 140.334 79.0364C140.981 78.3348 141.474 77.4991 141.777 76.5859L139.462 77.9782C138.817 78.3778 138.106 78.6516 137.364 78.7857L136.002 78.9111L136.683 80.1641C136.977 80.7318 137.319 81.2723 137.705 81.7792C138.09 82.3083 138.549 82.7773 139.067 83.1714L139.652 82.8512Z" fill="#D67374"/>
<path d="M134.927 86.793C135.297 88.1137 136.094 89.2672 137.188 90.0649C138.369 90.9358 139.833 91.3051 141.275 91.0952C142.636 90.8546 143.908 90.2384 144.952 89.313C145.436 88.8799 145.891 88.4148 146.314 87.9207C146.688 87.3859 147.029 86.8279 147.336 86.25C146.75 86.5563 146.233 86.9183 145.715 87.2524C145.197 87.5866 144.653 87.8651 144.162 88.1853C143.192 88.74 142.138 89.1259 141.043 89.327C139.992 89.4828 138.919 89.3282 137.951 88.8814C136.843 88.3498 135.823 87.6453 134.927 86.793Z" fill="#D67374"/>
<path d="M152.101 70.3783C151.338 71.9645 150.876 73.6842 150.739 75.4462C150.634 76.4065 150.814 77.377 151.257 78.2308C151.511 78.6742 151.86 79.0534 152.277 79.3402C152.695 79.627 153.17 79.8141 153.668 79.8876C154.653 80.0088 155.647 79.7669 156.474 79.2054C157.234 78.7008 157.899 78.0592 158.435 77.3119C159.465 75.8967 160.257 74.3156 160.778 72.6338C160.794 72.579 160.8 72.5213 160.795 72.4641C160.79 72.407 160.773 72.3515 160.746 72.3009C160.72 72.2503 160.684 72.2057 160.64 72.1696C160.596 72.1336 160.546 72.1068 160.492 72.0908C160.396 72.0574 160.291 72.0616 160.198 72.1028C160.105 72.144 160.03 72.2191 159.988 72.3136C159.324 73.8062 158.482 75.2091 157.482 76.4905C156.487 77.6878 155.193 78.7599 153.858 78.5093C153.549 78.4896 153.248 78.3978 152.979 78.2409C152.71 78.084 152.48 77.8663 152.306 77.6043C151.979 76.9461 151.828 76.211 151.87 75.4741C151.937 73.8366 152.24 72.2181 152.769 70.6707C152.783 70.625 152.789 70.5768 152.785 70.5288C152.782 70.4808 152.769 70.4341 152.747 70.3913C152.726 70.3485 152.696 70.3106 152.66 70.2797C152.624 70.2487 152.582 70.2255 152.537 70.2113C152.457 70.1835 152.369 70.1849 152.29 70.2153C152.211 70.2458 152.144 70.3034 152.101 70.3783Z" fill="#1C1C20"/>
<path d="M132.475 64.057C131.834 65.3688 131.41 66.7803 131.222 68.2339C131.113 69.0474 131.207 69.8758 131.494 70.6426C131.674 71.0752 131.963 71.4512 132.332 71.7325C132.7 72.0138 133.135 72.1902 133.592 72.2437C134.436 72.3346 135.283 72.0958 135.962 71.5754C136.565 71.0977 137.089 70.5242 137.515 69.8768C138.326 68.6433 138.951 67.2914 139.367 65.867C139.397 65.7562 139.384 65.6379 139.331 65.5367C139.277 65.4355 139.188 65.3593 139.081 65.324C138.983 65.2946 138.878 65.3024 138.786 65.3459C138.693 65.3894 138.619 65.4657 138.577 65.5607C138.024 66.8105 137.348 68 136.561 69.111C135.785 70.1553 134.763 71.1299 133.769 70.935C133.535 70.9133 133.31 70.8302 133.117 70.6936C132.923 70.5569 132.768 70.3715 132.666 70.1553C132.454 69.5826 132.365 68.97 132.407 68.3592C132.499 66.9923 132.751 65.6415 133.156 64.3354C133.181 64.2413 133.17 64.1407 133.124 64.0549C133.079 63.9692 133.002 63.905 132.911 63.876C132.829 63.843 132.738 63.8434 132.657 63.8772C132.576 63.9109 132.511 63.9753 132.475 64.057Z" fill="#1C1C20"/>
<path d="M142.458 48.6042C142.458 48.6042 164.565 81.5177 185.582 78.9142L191.412 75.517C191.412 75.517 199.571 43.1743 168.392 39.4013C155.03 37.7723 142.458 48.6042 142.458 48.6042Z" fill="#FF7977"/>
<path d="M43.6655 180.521C42.6711 175.913 41.5406 165.735 44.0469 161.168C43.5334 160.767 42.9085 160.542 42.2622 160.527C41.6159 160.512 40.9817 160.707 40.4509 161.085C36.4327 164.719 36.4736 170.691 36.4736 170.691C36.4736 170.691 17.2679 152.717 16.042 154.847C14.8161 156.977 24.3644 165.192 24.3644 165.192C24.3644 165.192 10.648 154.137 10.253 156.574C10.0623 157.52 12.7048 157.785 19.2838 166.584C19.2838 166.584 6.34376 157.701 7.02481 160.639C7.86932 164.329 15.32 170.162 15.32 170.162C15.32 170.162 5.86703 165.693 6.5617 168.032C7.05206 169.759 20.9864 183.64 27.075 190.81C29.4996 189.515 44.2648 181.175 43.6655 180.521Z" fill="#FDC2AB"/>
<path d="M37.6294 176.344L97.562 216.971L101.648 213.086L133.031 241.015C133.031 241.015 105.367 270.253 100.94 268.179C79.3098 258.224 26.7462 190.74 26.7462 190.74L37.6294 176.344Z" fill="#FDC2AB"/>
<path d="M158.845 140.553C141.042 156.634 145.101 155.172 96.7194 208.774L133.755 261.681C133.755 261.681 183.962 213.578 191.944 157.26C195.104 134.761 182.559 119.139 158.845 140.553Z" fill="#7519C8"/>
<path d="M199.436 142.781C197.803 140.008 195.886 137.423 193.715 135.068C190.781 131.843 186.833 129.773 182.559 129.22H182.464C168.993 127.494 155.562 133.578 148.547 144.535C133.401 168.357 130.84 193.683 131.603 215.249L147.948 307.571C149.937 307.446 151.925 307.265 153.928 307.042C181.583 303.995 207.415 291.472 227.223 271.511C226.351 212.799 213.928 173.648 204.067 151.664C202.701 148.609 201.154 145.643 199.436 142.781Z" fill="#8D21EF"/>
<path d="M40.0016 216.319C38.0674 212.03 34.8256 202.396 36.3103 197.328C35.7238 197.046 35.0651 196.962 34.4288 197.087C33.7925 197.212 33.2114 197.54 32.7688 198.024C29.6088 202.465 30.9164 208.285 30.9164 208.285C30.9164 208.285 8.37359 194.947 7.76065 197.272C7.1477 199.597 18.0581 205.556 18.0581 205.556C18.0581 205.556 2.35309 197.759 2.40758 200.252C2.40758 201.198 5.05006 200.892 13.3044 208.048C13.3044 208.048 -1.18836 202.201 0.0783958 204.93C1.67205 208.355 10.1852 212.42 10.1852 212.42C10.1852 212.42 0.0238953 210.095 1.16806 212.253C1.99894 213.826 18.5212 224.338 25.9719 230.005C28.0423 228.195 40.7235 216.834 40.0016 216.319Z" fill="#FDC2AB"/>
<path d="M37.6447 214.633L96.5558 258.782L117.464 232.997L144.488 260.369C144.488 260.369 117.641 305.785 109.577 303.962C81.6271 297.668 25.4675 229.238 25.4675 229.238L37.6447 214.633Z" fill="#FDC2AB"/>
<path d="M142.461 152.539C127.478 174.579 129.508 170.638 84.2179 243.705L141.167 283.079C180.165 229.741 211.697 206.211 199.847 158.038C193.745 133.2 162.498 123.176 142.461 152.539Z" fill="#8D21EF"/>
<path d="M141.166 283.076C141.166 283.076 169.661 263.473 194.043 205.609" stroke="#7519C8" stroke-width="1.58887" stroke-linecap="round" stroke-linejoin="round"/>
</svg>
